<svg preserveAspectRatio="none" width="100%" height="100%" overflow="visible" style="display: block;" viewBox="0 0 1797.84 1968.16" fill="none" xmlns="http://www.w3.org/2000/svg">
<g id="Polygon 5">
<path d="M550.48 147.267C720.53 49.0891 805.554 1.70602e-06 898.918 1.70602e-06C992.282 1.70602e-06 1077.31 49.0891 1247.36 147.267L1449.4 263.916C1619.45 362.094 1704.47 411.183 1751.15 492.039C1797.84 572.894 1797.84 671.072 1797.84 867.428V1100.73C1797.84 1297.08 1797.84 1395.26 1751.15 1476.12C1704.47 1556.97 1619.45 1606.06 1449.4 1704.24L1247.36 1820.89C1077.31 1919.07 992.282 1968.16 898.918 1968.16C805.554 1968.16 720.53 1919.07 550.48 1820.89L348.438 1704.24C178.388 1606.06 93.3637 1556.97 46.6818 1476.12C0 1395.26 0 1297.08 0 1100.73V867.429C0 671.072 0 572.894 46.6818 492.039C93.3637 411.183 178.388 362.094 348.438 263.916L550.48 147.267Z" fill="var(--fill-0, white)" fill-opacity="0.16" style="mix-blend-mode:overlay"/>
</g>
</svg>
