<svg preserveAspectRatio="none" width="100%" height="100%" overflow="visible" style="display: block;" viewBox="0 0 2516.67 2793.41" fill="none" xmlns="http://www.w3.org/2000/svg">
<g id="Polygon 7">
<path d="M894.449 153.796C1072.04 51.2654 1160.83 -1.92513e-06 1258.33 1.22736e-07C1355.84 2.17061e-06 1444.63 51.2654 1622.22 153.796L2152.78 460.117C2330.37 562.648 2419.17 613.913 2467.92 698.353C2516.67 782.793 2516.67 885.324 2516.67 1090.39V1703.03C2516.67 1908.09 2516.67 2010.62 2467.92 2095.06C2419.17 2179.5 2330.37 2230.77 2152.78 2333.3L1622.22 2639.62C1444.63 2742.15 1355.84 2793.41 1258.33 2793.41C1160.83 2793.41 1072.04 2742.15 894.449 2639.62L363.886 2333.3C186.297 2230.77 97.5029 2179.5 48.7515 2095.06C0 2010.62 0 1908.09 0 1703.03V1090.39C0 885.324 0 782.793 48.7515 698.353C97.5029 613.913 186.297 562.648 363.886 460.117L894.449 153.796Z" fill="url(#paint0_linear_0_74)" style="mix-blend-mode:overlay"/>
</g>
<defs>
<linearGradient id="paint0_linear_0_74" x1="2165.34" y1="2803.21" x2="-64.4377" y2="1718.66" gradientUnits="userSpaceOnUse">
<stop offset="0.0139408" stop-color="#B3B3B3"/>
<stop offset="0.374286" stop-color="white"/>
<stop offset="0.998258" stop-color="#FFFFFC"/>
</linearGradient>
</defs>
</svg>
