<svg width="16" height="16" viewBox="0 0 16 16" fill="none" xmlns="http://www.w3.org/2000/svg">
<rect width="16" height="16" fill="black"/>
<path d="M6.8682 6.10845C7.31305 5.85162 7.53548 5.7232 7.77721 5.69937C7.85063 5.69213 7.92459 5.69213 7.99801 5.69937C8.23974 5.7232 8.46217 5.85162 8.90702 6.10845C9.35187 6.36529 9.57429 6.4937 9.71581 6.69114C9.75878 6.7511 9.79576 6.81515 9.8262 6.88235C9.92643 7.10362 9.92643 7.36045 9.92643 7.87412C9.92643 8.38779 9.92643 8.64462 9.8262 8.86589C9.79576 8.9331 9.75878 8.99714 9.71581 9.05711C9.57429 9.25454 9.35187 9.38295 8.90702 9.63979C8.46217 9.89662 8.23974 10.025 7.99801 10.0489C7.92459 10.0561 7.85063 10.0561 7.77721 10.0489C7.53548 10.025 7.31305 9.89662 6.8682 9.63979C6.42335 9.38295 6.20093 9.25454 6.05941 9.05711C6.01643 8.99714 5.97946 8.9331 5.94902 8.86589C5.84879 8.64462 5.84879 8.38779 5.84879 7.87412C5.84879 7.36045 5.84879 7.10362 5.94902 6.88235C5.97946 6.81515 6.01643 6.7511 6.05941 6.69114C6.20093 6.4937 6.42335 6.36529 6.8682 6.10845Z" fill="white"/>
<path d="M7.20799 1.39237C7.50456 1.22115 7.65284 1.13554 7.814 1.11965C7.86295 1.11482 7.91225 1.11482 7.9612 1.11965C8.12235 1.13554 8.27064 1.22115 8.5672 1.39237C8.86377 1.56359 9.01205 1.6492 9.10639 1.78083C9.13505 1.8208 9.1597 1.8635 9.17999 1.9083C9.24681 2.05581 9.24681 2.22704 9.24681 2.56948C9.24681 2.91193 9.24681 3.08315 9.17999 3.23066C9.1597 3.27547 9.13505 3.31816 9.10639 3.35814C9.01205 3.48976 8.86377 3.57537 8.5672 3.74659C8.27064 3.91782 8.12235 4.00343 7.9612 4.01932C7.91225 4.02415 7.86295 4.02415 7.814 4.01932C7.65284 4.00343 7.50456 3.91782 7.20799 3.74659C6.91143 3.57537 6.76314 3.48976 6.6688 3.35814C6.64015 3.31816 6.6155 3.27547 6.5952 3.23066C6.52839 3.08315 6.52839 2.91193 6.52839 2.56948C6.52839 2.22704 6.52839 2.05581 6.5952 1.9083C6.6155 1.8635 6.64015 1.8208 6.6688 1.78083C6.76314 1.6492 6.91143 1.56359 7.20799 1.39237Z" fill="white"/>
<path d="M7.20799 14.3557C7.50456 14.5269 7.65284 14.6125 7.814 14.6284C7.86295 14.6332 7.91225 14.6332 7.9612 14.6284C8.12235 14.6125 8.27064 14.5269 8.5672 14.3557C8.86377 14.1845 9.01205 14.0988 9.10639 13.9672C9.13505 13.9272 9.1597 13.8845 9.17999 13.8397C9.24681 13.6922 9.24681 13.521 9.24681 13.1786C9.24681 12.8361 9.24681 12.6649 9.17999 12.5174C9.1597 12.4726 9.13505 12.4299 9.10639 12.3899C9.01205 12.2583 8.86377 12.1727 8.5672 12.0015C8.27064 11.8302 8.12235 11.7446 7.9612 11.7287C7.91225 11.7239 7.86295 11.7239 7.814 11.7287C7.65284 11.7446 7.50456 11.8302 7.20799 12.0015C6.91143 12.1727 6.76314 12.2583 6.6688 12.3899C6.64015 12.4299 6.6155 12.4726 6.5952 12.5174C6.52839 12.6649 6.52839 12.8361 6.52839 13.1786C6.52839 13.521 6.52839 13.6922 6.5952 13.8397C6.6155 13.8845 6.64015 13.9272 6.6688 13.9672C6.76314 14.0988 6.91143 14.1845 7.20799 14.3557Z" fill="white"/>
<path d="M11.7509 4.34879C12.0475 4.17757 12.1957 4.09196 12.3569 4.07607C12.4059 4.07124 12.4552 4.07124 12.5041 4.07607C12.6653 4.09196 12.8135 4.17757 13.1101 4.34879C13.4067 4.52001 13.555 4.60563 13.6493 4.73725C13.678 4.77722 13.7026 4.81992 13.7229 4.86472C13.7897 5.01224 13.7897 5.18346 13.7897 5.5259C13.7897 5.86835 13.7897 6.03957 13.7229 6.18708C13.7026 6.23189 13.678 6.27458 13.6493 6.31456C13.555 6.44618 13.4067 6.53179 13.1101 6.70301C12.8135 6.87424 12.6653 6.95985 12.5041 6.97574C12.4552 6.98057 12.4059 6.98057 12.3569 6.97574C12.1957 6.95985 12.0475 6.87424 11.7509 6.70301C11.4543 6.53179 11.306 6.44618 11.2117 6.31456C11.1831 6.27458 11.1584 6.23189 11.1381 6.18708C11.0713 6.03957 11.0713 5.86835 11.0713 5.5259C11.0713 5.18346 11.0713 5.01224 11.1381 4.86472C11.1584 4.81992 11.1831 4.77722 11.2117 4.73725C11.306 4.60563 11.4543 4.52001 11.7509 4.34879Z" fill="white"/>
<path d="M11.7509 11.4359C12.0475 11.6071 12.1957 11.6927 12.3569 11.7086C12.4059 11.7134 12.4552 11.7134 12.5041 11.7086C12.6653 11.6927 12.8135 11.6071 13.1101 11.4359C13.4067 11.2647 13.555 11.179 13.6493 11.0474C13.678 11.0074 13.7026 10.9647 13.7229 10.9199C13.7897 10.7724 13.7897 10.6012 13.7897 10.2588C13.7897 9.91632 13.7897 9.7451 13.7229 9.59758C13.7026 9.55278 13.678 9.51008 13.6493 9.47011C13.555 9.33849 13.4067 9.25288 13.1101 9.08165C12.8135 8.91043 12.6653 8.82482 12.5041 8.80893C12.4552 8.8041 12.4059 8.8041 12.3569 8.80893C12.1957 8.82482 12.0475 8.91043 11.7509 9.08165C11.4543 9.25288 11.306 9.33849 11.2117 9.47011C11.1831 9.51008 11.1584 9.55278 11.1381 9.59758C11.0713 9.7451 11.0713 9.91632 11.0713 10.2588C11.0713 10.6012 11.0713 10.7724 11.1381 10.9199C11.1584 10.9647 11.1831 11.0074 11.2117 11.0474C11.306 11.179 11.4543 11.2647 11.7509 11.4359Z" fill="white"/>
<path d="M4.2491 4.34879C3.95253 4.17757 3.80425 4.09196 3.64309 4.07607C3.59415 4.07124 3.54484 4.07124 3.4959 4.07607C3.33474 4.09196 3.18646 4.17757 2.88989 4.34879C2.59332 4.52001 2.44504 4.60563 2.3507 4.73725C2.32205 4.77722 2.29739 4.81992 2.2771 4.86472C2.21028 5.01224 2.21028 5.18346 2.21028 5.5259C2.21028 5.86835 2.21028 6.03957 2.2771 6.18708C2.29739 6.23189 2.32205 6.27458 2.3507 6.31456C2.44504 6.44618 2.59332 6.53179 2.88989 6.70301C3.18646 6.87424 3.33474 6.95985 3.4959 6.97574C3.54484 6.98057 3.59415 6.98057 3.64309 6.97574C3.80425 6.95985 3.95253 6.87424 4.2491 6.70301C4.54567 6.53179 4.69395 6.44618 4.78829 6.31456C4.81694 6.27458 4.8416 6.23189 4.86189 6.18708C4.92871 6.03957 4.92871 5.86835 4.92871 5.5259C4.92871 5.18346 4.92871 5.01224 4.86189 4.86472C4.8416 4.81992 4.81694 4.77722 4.78829 4.73725C4.69395 4.60563 4.54567 4.52001 4.2491 4.34879Z" fill="white"/>
<path d="M4.2491 11.4359C3.95253 11.6071 3.80425 11.6927 3.64309 11.7086C3.59415 11.7134 3.54484 11.7134 3.4959 11.7086C3.33474 11.6927 3.18646 11.6071 2.88989 11.4359C2.59332 11.2647 2.44504 11.179 2.3507 11.0474C2.32205 11.0074 2.29739 10.9647 2.2771 10.9199C2.21028 10.7724 2.21028 10.6012 2.21028 10.2588C2.21028 9.91632 2.21028 9.7451 2.2771 9.59758C2.29739 9.55278 2.32205 9.51008 2.3507 9.47011C2.44504 9.33849 2.59332 9.25288 2.88989 9.08165C3.18646 8.91043 3.33474 8.82482 3.4959 8.80893C3.54484 8.8041 3.59415 8.8041 3.64309 8.80893C3.80425 8.82482 3.95253 8.91043 4.2491 9.08165C4.54567 9.25288 4.69395 9.33849 4.78829 9.47011C4.81694 9.51008 4.8416 9.55278 4.86189 9.59758C4.92871 9.7451 4.92871 9.91632 4.92871 10.2588C4.92871 10.6012 4.92871 10.7724 4.86189 10.9199C4.8416 10.9647 4.81694 11.0074 4.78829 11.0474C4.69395 11.179 4.54567 11.2647 4.2491 11.4359Z" fill="white"/>
</svg>
