<svg width="144" height="48" viewBox="0 0 144 48" fill="none" xmlns="http://www.w3.org/2000/svg">
<path d="M20.7659 21.0003C21.6114 20.5121 22.0342 20.268 22.4984 20.268C22.9626 20.268 23.3854 20.5121 24.2309 21.0003L24.5169 21.1654C25.3624 21.6535 25.7851 21.8976 26.0173 22.2996C26.2494 22.7017 26.2494 23.1898 26.2494 24.1661V24.4964C26.2494 25.4727 26.2494 25.9608 26.0173 26.3629C25.7851 26.7649 25.3624 27.009 24.5169 27.4971L24.2309 27.6622C23.3854 28.1504 22.9626 28.3945 22.4984 28.3945C22.0342 28.3945 21.6114 28.1504 20.7659 27.6622L20.4799 27.4971C19.6344 27.009 19.2116 26.7649 18.9795 26.3629C18.7474 25.9608 18.7474 25.4727 18.7474 24.4964V24.1661C18.7474 23.1898 18.7474 22.7017 18.9795 22.2996C19.2116 21.8976 19.6344 21.6535 20.4799 21.1654L20.7659 21.0003Z" fill="#6B6B6B"/>
<path d="M20.8803 12.0075C21.2716 11.7816 21.4673 11.6686 21.6705 11.6076C22.0114 11.5054 22.3749 11.5054 22.7159 11.6076C22.919 11.6686 23.1147 11.7816 23.506 12.0075C23.8973 12.2334 24.093 12.3464 24.2473 12.4918C24.5064 12.736 24.6881 13.0508 24.77 13.3972C24.8188 13.6036 24.8188 13.8295 24.8188 14.2814C24.8188 14.7332 24.8188 14.9592 24.77 15.1656C24.6881 15.512 24.5064 15.8268 24.2473 16.0709C24.093 16.2164 23.8973 16.3294 23.506 16.5553C23.1147 16.7812 22.919 16.8942 22.7159 16.9551C22.3749 17.0574 22.0114 17.0574 21.6705 16.9551C21.4673 16.8942 21.2716 16.7812 20.8803 16.5553C20.489 16.3294 20.2933 16.2164 20.139 16.0709C19.8799 15.8268 19.6982 15.512 19.6163 15.1656C19.5675 14.9592 19.5675 14.7332 19.5675 14.2814C19.5675 13.8295 19.5675 13.6036 19.6163 13.3972C19.6982 13.0508 19.8799 12.736 20.139 12.4918C20.2933 12.3464 20.489 12.2334 20.8803 12.0075Z" fill="#515151"/>
<path d="M20.9823 3.43312C21.4465 3.16511 22.0185 3.16511 22.4827 3.43312C22.9469 3.70114 23.2329 4.19646 23.2329 4.7325C23.2329 5.26854 22.9469 5.76386 22.4827 6.03187C22.0185 6.29989 21.4465 6.29989 20.9823 6.03187C20.5181 5.76386 20.2321 5.26854 20.2321 4.7325C20.2321 4.19646 20.5181 3.70114 20.9823 3.43312Z" fill="#515151"/>
<path d="M20.8803 35.6546C21.2716 35.8806 21.4673 35.9935 21.6705 36.0545C22.0114 36.1567 22.3749 36.1567 22.7159 36.0545C22.919 35.9935 23.1147 35.8806 23.506 35.6546C23.8973 35.4287 24.093 35.3157 24.2473 35.1703C24.5064 34.9261 24.6881 34.6113 24.77 34.2649C24.8188 34.0585 24.8188 33.8326 24.8188 33.3807C24.8188 32.9289 24.8188 32.7029 24.77 32.4965C24.6881 32.1501 24.5064 31.8353 24.2473 31.5912C24.093 31.4457 23.8973 31.3327 23.506 31.1068C23.1147 30.8809 22.919 30.7679 22.7159 30.707C22.3749 30.6047 22.0114 30.6047 21.6705 30.707C21.4673 30.7679 21.2716 30.8809 20.8803 31.1068C20.489 31.3327 20.2933 31.4457 20.139 31.5912C19.8799 31.8353 19.6982 32.1501 19.6163 32.4965C19.5675 32.7029 19.5675 32.9289 19.5675 33.3807C19.5675 33.8326 19.5675 34.0585 19.6163 34.2649C19.6982 34.6113 19.8799 34.9261 20.139 35.1703C20.2933 35.3157 20.489 35.4287 20.8803 35.6546Z" fill="#8A8A8A"/>
<path d="M21.4444 44.229C21.9086 44.497 22.4805 44.497 22.9448 44.229C23.409 43.961 23.695 43.4656 23.695 42.9296C23.695 42.3936 23.409 41.8983 22.9448 41.6302C22.4805 41.3622 21.9086 41.3622 21.4444 41.6302C20.9802 41.8983 20.6942 42.3936 20.6942 42.9296C20.6942 43.4656 20.9802 43.961 21.4444 44.229Z" fill="#ADADAD"/>
<path d="M38.2403 12.8179C38.7045 12.5499 39.2764 12.5499 39.7407 12.8179C40.2049 13.0859 40.4909 13.5812 40.4909 14.1173C40.4909 14.6533 40.2049 15.1486 39.7407 15.4166C39.2764 15.6847 38.7045 15.6847 38.2403 15.4166C37.776 15.1486 37.4901 14.6533 37.4901 14.1173C37.4901 13.5812 37.776 13.0859 38.2403 12.8179Z" fill="#515151"/>
<path d="M38.2403 34.7895C38.7045 35.0575 39.2764 35.0575 39.7407 34.7895C40.2049 34.5215 40.4909 34.0262 40.4909 33.4902C40.4909 32.9541 40.2049 32.4588 39.7407 32.1908C39.2764 31.9228 38.7045 31.9228 38.2403 32.1908C37.776 32.4588 37.4901 32.9541 37.4901 33.4902C37.4901 34.0262 37.776 34.5215 38.2403 34.7895Z" fill="#8B8B8B"/>
<path d="M38.2403 25.0757C38.7045 25.3437 39.2764 25.3437 39.7407 25.0757C40.2049 24.8076 40.4909 24.3123 40.4909 23.7763C40.4909 23.2403 40.2049 22.7449 39.7407 22.4769C39.2764 22.2089 38.7045 22.2089 38.2403 22.4769C37.776 22.7449 37.4901 23.2403 37.4901 23.7763C37.4901 24.3123 37.776 24.8076 38.2403 25.0757Z" fill="#696969"/>
<path d="M6.48269 12.8179C6.01847 12.5499 5.44652 12.5499 4.9823 12.8179C4.51808 13.0859 4.23211 13.5812 4.23211 14.1173C4.23211 14.6533 4.51808 15.1486 4.9823 15.4166C5.44652 15.6847 6.01847 15.6847 6.48269 15.4166C6.94691 15.1486 7.23289 14.6533 7.23289 14.1173C7.23289 13.5812 6.94691 13.0859 6.48269 12.8179Z" fill="#515151"/>
<path d="M6.48269 22.4776C6.01847 22.2095 5.44652 22.2095 4.9823 22.4776C4.51808 22.7456 4.23211 23.2409 4.23211 23.7769C4.23211 24.313 4.51808 24.8083 4.9823 25.0763C5.44652 25.3443 6.01847 25.3443 6.48269 25.0763C6.94691 24.8083 7.23289 24.313 7.23289 23.7769C7.23289 23.2409 6.94691 22.7456 6.48269 22.4776Z" fill="#686868"/>
<path d="M6.48269 34.7895C6.01847 35.0575 5.44652 35.0575 4.9823 34.7895C4.51808 34.5215 4.23211 34.0262 4.23211 33.4902C4.23211 32.9541 4.51808 32.4588 4.9823 32.1908C5.44652 31.9228 6.01847 31.9228 6.48269 32.1908C6.94691 32.4588 7.23289 32.9541 7.23289 33.4902C7.23289 34.0262 6.94691 34.5215 6.48269 34.7895Z" fill="#8B8B8B"/>
<path d="M29.2778 16.4533C29.6691 16.2274 29.8648 16.1144 30.0679 16.0534C30.4089 15.9512 30.7724 15.9512 31.1133 16.0534C31.3165 16.1144 31.5121 16.2274 31.9035 16.4533C32.2948 16.6792 32.4904 16.7922 32.6448 16.9376C32.9039 17.1818 33.0856 17.4966 33.1675 17.843C33.2163 18.0494 33.2163 18.2753 33.2163 18.7272C33.2163 19.179 33.2163 19.405 33.1675 19.6114C33.0856 19.9578 32.9039 20.2726 32.6448 20.5167C32.4904 20.6622 32.2948 20.7752 31.9035 21.0011C31.5121 21.227 31.3165 21.34 31.1133 21.4009C30.7724 21.5032 30.4089 21.5032 30.0679 21.4009C29.8648 21.34 29.6691 21.227 29.2778 21.0011C28.8865 20.7752 28.6908 20.6622 28.5364 20.5167C28.2774 20.2726 28.0956 19.9578 28.0137 19.6114C27.9649 19.405 27.9649 19.179 27.9649 18.7272C27.9649 18.2753 27.9649 18.0494 28.0137 17.843C28.0956 17.4966 28.2774 17.1818 28.5364 16.9376C28.6908 16.7922 28.8865 16.6792 29.2778 16.4533Z" fill="#555652"/>
<path d="M29.8409 7.87844C30.3051 7.61042 30.877 7.61042 31.3412 7.87844C31.8055 8.14646 32.0914 8.64178 32.0914 9.17781C32.0914 9.71385 31.8055 10.2092 31.3412 10.4772C30.877 10.7452 30.3051 10.7452 29.8409 10.4772C29.3766 10.2092 29.0907 9.71385 29.0907 9.17781C29.0907 8.64178 29.3766 8.14646 29.8409 7.87844Z" fill="#515151"/>
<path d="M28.8862 31.306C29.2775 31.5319 29.4731 31.6449 29.6763 31.7058C30.0173 31.8081 30.3808 31.8081 30.7217 31.7058C30.9249 31.6449 31.1205 31.5319 31.5119 31.306C31.9032 31.0801 32.0988 30.9671 32.2532 30.8216C32.5123 30.5775 32.694 30.2627 32.7759 29.9163C32.8247 29.7099 32.8247 29.4839 32.8247 29.0321C32.8247 28.5802 32.8247 28.3543 32.7759 28.1479C32.694 27.8015 32.5123 27.4867 32.2532 27.2425C32.0988 27.0971 31.9032 26.9841 31.5119 26.7582C31.1205 26.5323 30.9249 26.4193 30.7217 26.3583C30.3808 26.2561 30.0173 26.2561 29.6763 26.3583C29.4731 26.4193 29.2775 26.5323 28.8862 26.7582C28.4949 26.9841 28.2992 27.0971 28.1448 27.2425C27.8858 27.4867 27.704 27.8015 27.6221 28.1479C27.5733 28.3543 27.5733 28.5802 27.5733 29.0321C27.5733 29.4839 27.5733 29.7099 27.6221 29.9163C27.704 30.2627 27.8858 30.5775 28.1448 30.8216C28.2992 30.9671 28.4949 31.0801 28.8862 31.306Z" fill="#7A7A7A"/>
<path d="M29.8409 39.8384C30.3051 40.1064 30.877 40.1064 31.3412 39.8384C31.8055 39.5703 32.0914 39.075 32.0914 38.539C32.0914 38.0029 31.8055 37.5076 31.3412 37.2396C30.877 36.9716 30.3051 36.9716 29.8409 37.2396C29.3766 37.5076 29.0907 38.0029 29.0907 38.539C29.0907 39.075 29.3766 39.5703 29.8409 39.8384Z" fill="#9C9C9C"/>
<path d="M15.4383 16.4533C15.047 16.2274 14.8514 16.1144 14.6482 16.0534C14.3072 15.9512 13.9438 15.9512 13.6028 16.0534C13.3996 16.1144 13.204 16.2274 12.8127 16.4533C12.4214 16.6792 12.2257 16.7922 12.0713 16.9376C11.8123 17.1818 11.6305 17.4966 11.5486 17.843C11.4998 18.0494 11.4998 18.2753 11.4998 18.7272C11.4998 19.179 11.4998 19.405 11.5486 19.6114C11.6305 19.9578 11.8123 20.2726 12.0713 20.5167C12.2257 20.6622 12.4214 20.7752 12.8127 21.0011C13.204 21.227 13.3996 21.34 13.6028 21.4009C13.9438 21.5032 14.3072 21.5032 14.6482 21.4009C14.8514 21.34 15.047 21.227 15.4383 21.0011C15.8297 20.7752 16.0253 20.6622 16.1797 20.5167C16.4387 20.2726 16.6205 19.9578 16.7024 19.6114C16.7512 19.405 16.7512 19.179 16.7512 18.7272C16.7512 18.2753 16.7512 18.0494 16.7024 17.843C16.6205 17.4966 16.4387 17.1818 16.1797 16.9376C16.0253 16.7922 15.8297 16.6792 15.4383 16.4533Z" fill="#555652"/>
<path d="M14.8772 7.87844C14.413 7.61042 13.8411 7.61042 13.3768 7.87844C12.9126 8.14646 12.6266 8.64178 12.6266 9.17781C12.6266 9.71385 12.9126 10.2092 13.3768 10.4772C13.8411 10.7452 14.413 10.7452 14.8772 10.4772C15.3414 10.2092 15.6274 9.71385 15.6274 9.17781C15.6274 8.64178 15.3414 8.14646 14.8772 7.87844Z" fill="#515151"/>
<path d="M15.4383 31.264C15.047 31.4899 14.8514 31.6029 14.6482 31.6638C14.3072 31.7661 13.9438 31.7661 13.6028 31.6638C13.3996 31.6029 13.204 31.4899 12.8127 31.264C12.4214 31.0381 12.2257 30.9251 12.0713 30.7796C11.8123 30.5355 11.6305 30.2207 11.5486 29.8743C11.4998 29.6679 11.4998 29.4419 11.4998 28.9901C11.4998 28.5382 11.4998 28.3123 11.5486 28.1059C11.6305 27.7595 11.8123 27.4447 12.0713 27.2006C12.2257 27.0551 12.4214 26.9421 12.8127 26.7162C13.204 26.4903 13.3996 26.3773 13.6028 26.3164C13.9438 26.2141 14.3072 26.2141 14.6482 26.3164C14.8514 26.3773 15.047 26.4903 15.4383 26.7162C15.8297 26.9421 16.0253 27.0551 16.1797 27.2006C16.4387 27.4447 16.6205 27.7595 16.7024 28.1059C16.7512 28.3123 16.7512 28.5382 16.7512 28.9901C16.7512 29.4419 16.7512 29.6679 16.7024 29.8743C16.6205 30.2207 16.4387 30.5355 16.1797 30.7796C16.0253 30.9251 15.8297 31.0381 15.4383 31.264Z" fill="#7A7A7A"/>
<path d="M14.8772 39.8388C14.413 40.1069 13.8411 40.1069 13.3768 39.8388C12.9126 39.5708 12.6266 39.0755 12.6266 38.5395C12.6266 38.0034 12.9126 37.5081 13.3768 37.2401C13.8411 36.9721 14.413 36.9721 14.8772 37.2401C15.3414 37.5081 15.6274 38.0034 15.6274 38.5395C15.6274 39.0755 15.3414 39.5708 14.8772 39.8388Z" fill="#9C9C9C"/>
<path d="M136.98 17.0005L140.066 17.0005L134.314 25.2955V30.4005H131.324V25.3175L125.572 17.0005H128.558L132.808 23.0545L136.98 17.0005Z" fill="white"/>
<path d="M114.819 18.6505V17.0005L123.292 17.0005L122.842 18.6505H118.955H114.819ZM114.819 24.4413V22.9233H122.357L121.907 24.4413H114.819ZM113.045 19.0005C113.045 17.8959 113.94 17.0005 115.045 17.0005H116.081V30.4005H113.045V19.0005Z" fill="white"/>
<path d="M105.574 18.0005C105.574 17.4482 106.022 17.0005 106.574 17.0005H108.664V29.4005C108.664 29.9528 108.216 30.4005 107.664 30.4005H105.574V18.0005Z" fill="white"/>
<path d="M91.1542 18.7385V18.0005C91.1542 17.4482 91.602 17.0005 92.1542 17.0005H102.844L102.394 18.7385H98.5612V30.4005H95.4152V18.7385H91.1542Z" fill="white"/>
<path d="M85.3391 17.0006H88.3751V29.3972C88.3751 29.9501 87.9264 30.3981 87.3734 30.3972L85.3391 30.3936L77.3882 20.4015L77.4192 30.4006H74.3832L74.3828 19.0001C74.3828 17.8955 75.2782 17.0001 76.3828 17L77.4188 17L85.3391 27.4236V17.0006Z" fill="white"/>
<path d="M61.247 30.4005V28.8385H69.783L69.333 30.4005H61.247ZM61.247 18.5625V17.0005H70.133L69.683 18.5625H61.247ZM61.247 24.3653V22.8473H69.4963L69.0463 24.3653H61.247ZM58.723 19.0005C58.723 17.8959 59.6184 17.0005 60.723 17.0005H62.259V30.4005H59.723C59.1707 30.4005 58.723 29.9528 58.723 29.4005V19.0005Z" fill="white"/>
</svg>
