<svg width="144" height="48" viewBox="0 0 144 48" fill="none" xmlns="http://www.w3.org/2000/svg">
<path d="M20.7657 21.0003C21.6112 20.5121 22.034 20.268 22.4982 20.268C22.9624 20.268 23.3852 20.5121 24.2307 21.0003L24.5167 21.1654C25.3622 21.6535 25.785 21.8976 26.0171 22.2996C26.2492 22.7017 26.2492 23.1898 26.2492 24.1661V24.4964C26.2492 25.4727 26.2492 25.9608 26.0171 26.3629C25.785 26.7649 25.3622 27.009 24.5167 27.4971L24.2307 27.6622C23.3852 28.1504 22.9624 28.3945 22.4982 28.3945C22.034 28.3945 21.6112 28.1504 20.7657 27.6622L20.4797 27.4971C19.6342 27.009 19.2115 26.7649 18.9794 26.3629C18.7472 25.9608 18.7472 25.4727 18.7472 24.4964V24.1661C18.7472 23.1898 18.7472 22.7017 18.9794 22.2996C19.2115 21.8976 19.6342 21.6535 20.4797 21.1654L20.7657 21.0003Z" fill="white"/>
<path d="M20.8807 12.0077C21.272 11.7818 21.4677 11.6688 21.6708 11.6079C22.0118 11.5056 22.3753 11.5056 22.7162 11.6079C22.9194 11.6688 23.1151 11.7818 23.5064 12.0077C23.8977 12.2336 24.0933 12.3466 24.2477 12.4921C24.5068 12.7362 24.6885 13.051 24.7704 13.3974C24.8192 13.6039 24.8192 13.8298 24.8192 14.2816C24.8192 14.7335 24.8192 14.9594 24.7704 15.1658C24.6885 15.5123 24.5068 15.827 24.2477 16.0712C24.0933 16.2166 23.8977 16.3296 23.5064 16.5555C23.1151 16.7815 22.9194 16.8944 22.7162 16.9554C22.3753 17.0577 22.0118 17.0577 21.6708 16.9554C21.4677 16.8944 21.272 16.7815 20.8807 16.5555C20.4894 16.3296 20.2937 16.2166 20.1394 16.0712C19.8803 15.827 19.6985 15.5123 19.6166 15.1658C19.5678 14.9594 19.5678 14.7335 19.5678 14.2816C19.5678 13.8298 19.5678 13.6039 19.6166 13.3974C19.6985 13.051 19.8803 12.7362 20.1394 12.4921C20.2937 12.3466 20.4894 12.2336 20.8807 12.0077Z" fill="white"/>
<path d="M21.4442 3.43312C21.9084 3.16511 22.4803 3.16511 22.9445 3.43312C23.4088 3.70114 23.6947 4.19646 23.6947 4.7325C23.6947 5.26854 23.4088 5.76386 22.9445 6.03187C22.4803 6.29989 21.9084 6.29989 21.4442 6.03187C20.9799 5.76386 20.694 5.26854 20.694 4.7325C20.694 4.19646 20.9799 3.70114 21.4442 3.43312Z" fill="white"/>
<path d="M20.8807 35.6546C21.272 35.8806 21.4677 35.9935 21.6708 36.0545C22.0118 36.1567 22.3753 36.1567 22.7162 36.0545C22.9194 35.9935 23.1151 35.8806 23.5064 35.6546C23.8977 35.4287 24.0933 35.3157 24.2477 35.1703C24.5068 34.9261 24.6885 34.6113 24.7704 34.2649C24.8192 34.0585 24.8192 33.8326 24.8192 33.3807C24.8192 32.9289 24.8192 32.7029 24.7704 32.4965C24.6885 32.1501 24.5068 31.8353 24.2477 31.5912C24.0933 31.4457 23.8977 31.3327 23.5064 31.1068C23.1151 30.8809 22.9194 30.7679 22.7162 30.707C22.3753 30.6047 22.0118 30.6047 21.6708 30.707C21.4677 30.7679 21.272 30.8809 20.8807 31.1068C20.4894 31.3327 20.2937 31.4457 20.1394 31.5912C19.8803 31.8353 19.6985 32.1501 19.6166 32.4965C19.5678 32.7029 19.5678 32.9289 19.5678 33.3807C19.5678 33.8326 19.5678 34.0585 19.6166 34.2649C19.6985 34.6113 19.8803 34.9261 20.1394 35.1703C20.2937 35.3157 20.4894 35.4287 20.8807 35.6546Z" fill="white"/>
<path d="M21.4442 44.2292C21.9084 44.4972 22.4803 44.4972 22.9445 44.2292C23.4088 43.9612 23.6947 43.4659 23.6947 42.9299C23.6947 42.3938 23.4088 41.8985 22.9445 41.6305C22.4803 41.3625 21.9084 41.3625 21.4442 41.6305C20.9799 41.8985 20.694 42.3938 20.694 42.9299C20.694 43.4659 20.9799 43.9612 21.4442 44.2292Z" fill="white"/>
<path d="M38.2398 12.8181C38.704 12.5501 39.2759 12.5501 39.7402 12.8181C40.2044 13.0862 40.4904 13.5815 40.4904 14.1175C40.4904 14.6535 40.2044 15.1489 39.7402 15.4169C39.2759 15.6849 38.704 15.6849 38.2398 15.4169C37.7756 15.1489 37.4896 14.6535 37.4896 14.1175C37.4896 13.5815 37.7756 13.0862 38.2398 12.8181Z" fill="white"/>
<path d="M38.2398 34.7899C38.704 35.0579 39.2759 35.0579 39.7402 34.7899C40.2044 34.5219 40.4904 34.0266 40.4904 33.4905C40.4904 32.9545 40.2044 32.4592 39.7402 32.1911C39.2759 31.9231 38.704 31.9231 38.2398 32.1911C37.7756 32.4592 37.4896 32.9545 37.4896 33.4905C37.4896 34.0266 37.7756 34.5219 38.2398 34.7899Z" fill="white"/>
<path d="M38.2398 25.0758C38.704 25.3439 39.2759 25.3439 39.7402 25.0758C40.2044 24.8078 40.4904 24.3125 40.4904 23.7765C40.4904 23.2404 40.2044 22.7451 39.7402 22.4771C39.2759 22.2091 38.704 22.2091 38.2398 22.4771C37.7756 22.7451 37.4896 23.2404 37.4896 23.7765C37.4896 24.3125 37.7756 24.8078 38.2398 25.0758Z" fill="white"/>
<path d="M6.48275 12.8181C6.01853 12.5501 5.44658 12.5501 4.98236 12.8181C4.51814 13.0862 4.23217 13.5815 4.23217 14.1175C4.23217 14.6535 4.51814 15.1489 4.98236 15.4169C5.44658 15.6849 6.01853 15.6849 6.48275 15.4169C6.94697 15.1489 7.23295 14.6535 7.23295 14.1175C7.23295 13.5815 6.94697 13.0862 6.48275 12.8181Z" fill="white"/>
<path d="M6.48275 22.4776C6.01853 22.2095 5.44658 22.2095 4.98236 22.4776C4.51814 22.7456 4.23217 23.2409 4.23217 23.7769C4.23217 24.313 4.51814 24.8083 4.98236 25.0763C5.44658 25.3443 6.01853 25.3443 6.48275 25.0763C6.94697 24.8083 7.23295 24.313 7.23295 23.7769C7.23295 23.2409 6.94697 22.7456 6.48275 22.4776Z" fill="white"/>
<path d="M6.48275 34.7899C6.01853 35.0579 5.44658 35.0579 4.98236 34.7899C4.51814 34.5219 4.23217 34.0266 4.23217 33.4905C4.23217 32.9545 4.51814 32.4592 4.98236 32.1911C5.44658 31.9231 6.01853 31.9231 6.48275 32.1911C6.94697 32.4592 7.23295 32.9545 7.23295 33.4905C7.23295 34.0266 6.94697 34.5219 6.48275 34.7899Z" fill="white"/>
<path d="M29.2775 16.4533C29.6688 16.2274 29.8644 16.1144 30.0676 16.0534C30.4086 15.9512 30.7721 15.9512 31.113 16.0534C31.3162 16.1144 31.5118 16.2274 31.9032 16.4533C32.2945 16.6792 32.4901 16.7922 32.6445 16.9376C32.9036 17.1818 33.0853 17.4966 33.1672 17.843C33.216 18.0494 33.216 18.2753 33.216 18.7272C33.216 19.179 33.216 19.405 33.1672 19.6114C33.0853 19.9578 32.9036 20.2726 32.6445 20.5167C32.4901 20.6622 32.2945 20.7752 31.9032 21.0011C31.5118 21.227 31.3162 21.34 31.113 21.4009C30.7721 21.5032 30.4086 21.5032 30.0676 21.4009C29.8644 21.34 29.6688 21.227 29.2775 21.0011C28.8862 20.7752 28.6905 20.6622 28.5361 20.5167C28.2771 20.2726 28.0953 19.9578 28.0134 19.6114C27.9646 19.405 27.9646 19.179 27.9646 18.7272C27.9646 18.2753 27.9646 18.0494 28.0134 17.843C28.0953 17.4966 28.2771 17.1818 28.5361 16.9376C28.6905 16.7922 28.8862 16.6792 29.2775 16.4533Z" fill="white"/>
<path d="M29.8409 7.87868C30.3052 7.61066 30.8771 7.61066 31.3413 7.87868C31.8056 8.1467 32.0915 8.64202 32.0915 9.17806C32.0915 9.71409 31.8056 10.2094 31.3413 10.4774C30.8771 10.7455 30.3052 10.7455 29.8409 10.4774C29.3767 10.2094 29.0908 9.71409 29.0908 9.17806C29.0908 8.64202 29.3767 8.1467 29.8409 7.87868Z" fill="white"/>
<path d="M29.2775 31.2641C29.6688 31.4901 29.8644 31.603 30.0676 31.664C30.4086 31.7662 30.7721 31.7662 31.113 31.664C31.3162 31.603 31.5118 31.4901 31.9032 31.2641C32.2945 31.0382 32.4901 30.9252 32.6445 30.7798C32.9036 30.5356 33.0853 30.2208 33.1672 29.8744C33.216 29.668 33.216 29.4421 33.216 28.9902C33.216 28.5384 33.216 28.3124 33.1672 28.106C33.0853 27.7596 32.9036 27.4448 32.6445 27.2007C32.4901 27.0552 32.2945 26.9422 31.9032 26.7163C31.5118 26.4904 31.3162 26.3774 31.113 26.3165C30.7721 26.2142 30.4086 26.2142 30.0676 26.3165C29.8644 26.3774 29.6688 26.4904 29.2775 26.7163C28.8862 26.9422 28.6905 27.0552 28.5361 27.2007C28.2771 27.4448 28.0953 27.7596 28.0134 28.106C27.9646 28.3124 27.9646 28.5384 27.9646 28.9902C27.9646 29.4421 27.9646 29.668 28.0134 29.8744C28.0953 30.2208 28.2771 30.5356 28.5361 30.7798C28.6905 30.9252 28.8862 31.0382 29.2775 31.2641Z" fill="white"/>
<path d="M29.8409 39.8385C30.3052 40.1065 30.8771 40.1065 31.3413 39.8385C31.8056 39.5705 32.0915 39.0751 32.0915 38.5391C32.0915 38.0031 31.8056 37.5078 31.3413 37.2397C30.8771 36.9717 30.3052 36.9717 29.8409 37.2397C29.3767 37.5078 29.0908 38.0031 29.0908 38.5391C29.0908 39.0751 29.3767 39.5705 29.8409 39.8385Z" fill="white"/>
<path d="M15.4386 16.4533C15.0473 16.2274 14.8516 16.1144 14.6485 16.0534C14.3075 15.9512 13.944 15.9512 13.6031 16.0534C13.3999 16.1144 13.2043 16.2274 12.8129 16.4533C12.4216 16.6792 12.226 16.7922 12.0716 16.9376C11.8125 17.1818 11.6308 17.4966 11.5489 17.843C11.5001 18.0494 11.5001 18.2753 11.5001 18.7272C11.5001 19.179 11.5001 19.405 11.5489 19.6114C11.6308 19.9578 11.8125 20.2726 12.0716 20.5167C12.226 20.6622 12.4216 20.7752 12.8129 21.0011C13.2043 21.227 13.3999 21.34 13.6031 21.4009C13.944 21.5032 14.3075 21.5032 14.6485 21.4009C14.8516 21.34 15.0473 21.227 15.4386 21.0011C15.8299 20.7752 16.0256 20.6622 16.18 20.5167C16.439 20.2726 16.6208 19.9578 16.7027 19.6114C16.7515 19.405 16.7515 19.179 16.7515 18.7272C16.7515 18.2753 16.7515 18.0494 16.7027 17.843C16.6208 17.4966 16.439 17.1818 16.18 16.9376C16.0256 16.7922 15.8299 16.6792 15.4386 16.4533Z" fill="white"/>
<path d="M14.8772 7.87868C14.413 7.61066 13.841 7.61066 13.3768 7.87868C12.9126 8.1467 12.6266 8.64202 12.6266 9.17806C12.6266 9.71409 12.9126 10.2094 13.3768 10.4774C13.841 10.7455 14.413 10.7455 14.8772 10.4774C15.3414 10.2094 15.6274 9.71409 15.6274 9.17806C15.6274 8.64202 15.3414 8.1467 14.8772 7.87868Z" fill="white"/>
<path d="M15.4386 31.2641C15.0473 31.4901 14.8516 31.603 14.6485 31.664C14.3075 31.7662 13.944 31.7662 13.6031 31.664C13.3999 31.603 13.2043 31.4901 12.8129 31.2641C12.4216 31.0382 12.226 30.9252 12.0716 30.7798C11.8125 30.5356 11.6308 30.2208 11.5489 29.8744C11.5001 29.668 11.5001 29.4421 11.5001 28.9902C11.5001 28.5384 11.5001 28.3124 11.5489 28.106C11.6308 27.7596 11.8125 27.4448 12.0716 27.2007C12.226 27.0552 12.4216 26.9422 12.8129 26.7163C13.2043 26.4904 13.3999 26.3774 13.6031 26.3165C13.944 26.2142 14.3075 26.2142 14.6485 26.3165C14.8516 26.3774 15.0473 26.4904 15.4386 26.7163C15.8299 26.9422 16.0256 27.0552 16.18 27.2007C16.439 27.4448 16.6208 27.7596 16.7027 28.106C16.7515 28.3124 16.7515 28.5384 16.7515 28.9902C16.7515 29.4421 16.7515 29.668 16.7027 29.8744C16.6208 30.2208 16.439 30.5356 16.18 30.7798C16.0256 30.9252 15.8299 31.0382 15.4386 31.2641Z" fill="white"/>
<path d="M14.8772 39.8388C14.413 40.1068 13.841 40.1068 13.3768 39.8388C12.9126 39.5708 12.6266 39.0754 12.6266 38.5394C12.6266 38.0034 12.9126 37.5081 13.3768 37.24C13.841 36.972 14.413 36.972 14.8772 37.24C15.3414 37.5081 15.6274 38.0034 15.6274 38.5394C15.6274 39.0754 15.3414 39.5708 14.8772 39.8388Z" fill="white"/>
<path d="M136.591 17.0005L139.677 17.0005L133.925 25.2955V30.4005H130.935V25.3175L125.183 17.0005H128.169L132.419 23.0545L136.591 17.0005Z" fill="white"/>
<path d="M114.43 18.6505V17.0005L122.903 17.0005L122.453 18.6505H118.566H114.43ZM114.43 24.4413V22.9233H121.968L121.518 24.4413H114.43ZM112.656 19.0005C112.656 17.8959 113.551 17.0005 114.656 17.0005H115.692V30.4005H112.656V19.0005Z" fill="white"/>
<path d="M105.185 18.0005C105.185 17.4482 105.633 17.0005 106.185 17.0005H108.275V29.4005C108.275 29.9528 107.827 30.4005 107.275 30.4005H105.185V18.0005Z" fill="white"/>
<path d="M90.7651 18.7385V18.0005C90.7651 17.4482 91.2129 17.0005 91.7651 17.0005H102.455L102.005 18.7385H98.1721V30.4005H95.0261V18.7385H90.7651Z" fill="white"/>
<path d="M84.95 17.0006H87.986V29.3972C87.986 29.9501 87.5373 30.3981 86.9843 30.3972L84.95 30.3936L76.9991 20.4015L77.0301 30.4006H73.9941L73.9937 19.0001C73.9937 17.8955 74.8891 17.0001 75.9937 17L77.0297 17L84.95 27.4236V17.0006Z" fill="white"/>
<path d="M60.8579 30.4005V28.8385H69.3939L68.9439 30.4005H60.8579ZM60.8579 18.5625V17.0005H69.7439L69.2939 18.5625H60.8579ZM60.8579 24.3653V22.8473H69.1072L68.6572 24.3653H60.8579ZM58.3339 19.0005C58.3339 17.8959 59.2293 17.0005 60.3339 17.0005H61.8699V30.4005H59.3339C58.7816 30.4005 58.3339 29.9528 58.3339 29.4005V19.0005Z" fill="white"/>
</svg>
