<svg width="37" height="42" viewBox="0 0 37 42" fill="none" xmlns="http://www.w3.org/2000/svg">
<path d="M16.9294 17.7837C17.7749 17.2956 18.1977 17.0515 18.6619 17.0515C19.1261 17.0515 19.5489 17.2956 20.3944 17.7837L20.6804 17.9488C21.5259 18.437 21.9486 18.6811 22.1807 19.0831C22.4129 19.4851 22.4129 19.9733 22.4129 20.9496V21.2798C22.4129 22.2562 22.4129 22.7443 22.1807 23.1463C21.9486 23.5484 21.5259 23.7925 20.6804 24.2806L20.3944 24.4457C19.5489 24.9339 19.1261 25.178 18.6619 25.178C18.1977 25.178 17.7749 24.9339 16.9294 24.4457L16.6434 24.2806C15.7979 23.7925 15.3751 23.5484 15.143 23.1463C14.9109 22.7443 14.9109 22.2562 14.9109 21.2798V20.9496C14.9109 19.9733 14.9109 19.4851 15.143 19.0831C15.3751 18.6811 15.7979 18.437 16.6434 17.9488L16.9294 17.7837Z" fill="#676B56"/>
<path d="M17.0438 8.79096C17.4351 8.56503 17.6308 8.45207 17.8339 8.39112C18.1749 8.28884 18.5384 8.28884 18.8793 8.39112C19.0825 8.45207 19.2782 8.56503 19.6695 8.79096C20.0608 9.01688 20.2565 9.12985 20.4108 9.27532C20.6699 9.51946 20.8516 9.83424 20.9335 10.1807C20.9823 10.3871 20.9823 10.613 20.9823 11.0649C20.9823 11.5167 20.9823 11.7426 20.9335 11.9491C20.8516 12.2955 20.6699 12.6103 20.4108 12.8544C20.2565 12.9999 20.0608 13.1128 19.6695 13.3388C19.2782 13.5647 19.0825 13.6777 18.8793 13.7386C18.5384 13.8409 18.1749 13.8409 17.8339 13.7386C17.6308 13.6777 17.4351 13.5647 17.0438 13.3388C16.6525 13.1128 16.4568 12.9999 16.3025 12.8544C16.0434 12.6103 15.8617 12.2955 15.7798 11.9491C15.731 11.7426 15.731 11.5167 15.731 11.0649C15.731 10.613 15.731 10.3871 15.7798 10.1807C15.8617 9.83424 16.0434 9.51946 16.3025 9.27532C16.4568 9.12985 16.6525 9.01688 17.0438 8.79096Z" fill="#515151"/>
<path d="M17.6079 0.216603C18.0721 -0.0514158 18.644 -0.0514158 19.1082 0.216603C19.5725 0.484621 19.8584 0.979941 19.8584 1.51598C19.8584 2.05201 19.5725 2.54733 19.1082 2.81535C18.644 3.08337 18.0721 3.08337 17.6079 2.81535C17.1436 2.54733 16.8577 2.05201 16.8577 1.51598C16.8577 0.979941 17.1436 0.484621 17.6079 0.216603Z" fill="#515151"/>
<path d="M17.0438 32.4381C17.4351 32.664 17.6308 32.777 17.8339 32.8379C18.1749 32.9402 18.5384 32.9402 18.8793 32.8379C19.0825 32.777 19.2782 32.664 19.6695 32.4381C20.0608 32.2122 20.2565 32.0992 20.4108 31.9537C20.6699 31.7096 20.8516 31.3948 20.9335 31.0484C20.9823 30.842 20.9823 30.6161 20.9823 30.1642C20.9823 29.7124 20.9823 29.4864 20.9335 29.28C20.8516 28.9336 20.6699 28.6188 20.4108 28.3747C20.2565 28.2292 20.0608 28.1162 19.6695 27.8903C19.2782 27.6644 19.0825 27.5514 18.8793 27.4905C18.5384 27.3882 18.1749 27.3882 17.8339 27.4905C17.6308 27.5514 17.4351 27.6644 17.0438 27.8903C16.6525 28.1162 16.4568 28.2292 16.3025 28.3747C16.0434 28.6188 15.8617 28.9336 15.7798 29.28C15.731 29.4864 15.731 29.7124 15.731 30.1642C15.731 30.6161 15.731 30.842 15.7798 31.0484C15.8617 31.3948 16.0434 31.7096 16.3025 31.9537C16.4568 32.0992 16.6525 32.2122 17.0438 32.4381Z" fill="#828A5C"/>
<path d="M17.6079 41.0125C18.0721 41.2805 18.644 41.2805 19.1082 41.0125C19.5725 40.7444 19.8584 40.2491 19.8584 39.7131C19.8584 39.1771 19.5725 38.6817 19.1082 38.4137C18.644 38.1457 18.0721 38.1457 17.6079 38.4137C17.1436 38.6817 16.8577 39.1771 16.8577 39.7131C16.8577 40.2491 17.1436 40.7444 17.6079 41.0125Z" fill="#A1AD62"/>
<path d="M34.4038 9.60137C34.868 9.33335 35.4399 9.33335 35.9041 9.60137C36.3684 9.86939 36.6543 10.3647 36.6543 10.9007C36.6543 11.4368 36.3684 11.9321 35.9041 12.2001C35.4399 12.4681 34.868 12.4681 34.4038 12.2001C33.9395 11.9321 33.6536 11.4368 33.6536 10.9007C33.6536 10.3647 33.9395 9.86939 34.4038 9.60137Z" fill="#515151"/>
<path d="M34.4038 31.573C34.868 31.841 35.4399 31.841 35.9041 31.573C36.3684 31.305 36.6543 30.8097 36.6543 30.2736C36.6543 29.7376 36.3684 29.2423 35.9041 28.9743C35.4399 28.7062 34.868 28.7062 34.4038 28.9743C33.9395 29.2423 33.6536 29.7376 33.6536 30.2736C33.6536 30.8097 33.9395 31.305 34.4038 31.573Z" fill="#838B5C"/>
<path d="M34.4038 21.8591C34.868 22.1272 35.4399 22.1272 35.9041 21.8591C36.3684 21.5911 36.6543 21.0958 36.6543 20.5598C36.6543 20.0237 36.3684 19.5284 35.9041 19.2604C35.4399 18.9924 34.868 18.9924 34.4038 19.2604C33.9395 19.5284 33.6536 20.0237 33.6536 20.5598C33.6536 21.0958 33.9395 21.5911 34.4038 21.8591Z" fill="#656955"/>
<path d="M2.64617 9.60137C2.18195 9.33335 1.61001 9.33335 1.14578 9.60137C0.681563 9.86939 0.39559 10.3647 0.39559 10.9007C0.39559 11.4368 0.681563 11.9321 1.14578 12.2001C1.61001 12.4681 2.18195 12.4681 2.64617 12.2001C3.1104 11.9321 3.39637 11.4368 3.39637 10.9007C3.39637 10.3647 3.1104 9.86939 2.64617 9.60137Z" fill="#515151"/>
<path d="M2.64617 19.261C2.18195 18.993 1.61001 18.993 1.14578 19.261C0.681563 19.5291 0.39559 20.0244 0.39559 20.5604C0.39559 21.0964 0.681563 21.5918 1.14578 21.8598C1.61001 22.1278 2.18195 22.1278 2.64617 21.8598C3.1104 21.5918 3.39637 21.0964 3.39637 20.5604C3.39637 20.0244 3.1104 19.5291 2.64617 19.261Z" fill="#656855"/>
<path d="M2.64617 31.573C2.18195 31.841 1.61001 31.841 1.14578 31.573C0.681563 31.305 0.39559 30.8097 0.39559 30.2736C0.39559 29.7376 0.681563 29.2423 1.14578 28.9743C1.61001 28.7062 2.18195 28.7062 2.64617 28.9743C3.1104 29.2423 3.39637 29.7376 3.39637 30.2736C3.39637 30.8097 3.1104 31.305 2.64617 31.573Z" fill="#838B5C"/>
<path d="M25.4413 13.2368C25.8326 13.0108 26.0282 12.8979 26.2314 12.8369C26.5724 12.7346 26.9358 12.7346 27.2768 12.8369C27.48 12.8979 27.6756 13.0108 28.0669 13.2368C28.4583 13.4627 28.6539 13.5756 28.8083 13.7211C29.0673 13.9653 29.2491 14.28 29.331 14.6265C29.3798 14.8329 29.3798 15.0588 29.3798 15.5107C29.3798 15.9625 29.3798 16.1884 29.331 16.3949C29.2491 16.7413 29.0673 17.0561 28.8083 17.3002C28.6539 17.4457 28.4583 17.5586 28.0669 17.7846C27.6756 18.0105 27.48 18.1235 27.2768 18.1844C26.9358 18.2867 26.5724 18.2867 26.2314 18.1844C26.0282 18.1235 25.8326 18.0105 25.4413 17.7846C25.05 17.5586 24.8543 17.4457 24.6999 17.3002C24.4409 17.0561 24.2591 16.7413 24.1772 16.3949C24.1284 16.1884 24.1284 15.9625 24.1284 15.5107C24.1284 15.0588 24.1284 14.8329 24.1772 14.6265C24.2591 14.28 24.4409 13.9653 24.6999 13.7211C24.8543 13.5756 25.05 13.4627 25.4413 13.2368Z" fill="#555652"/>
<path d="M26.0043 4.66192C26.4686 4.3939 27.0405 4.3939 27.5047 4.66192C27.9689 4.92993 28.2549 5.42525 28.2549 5.96129C28.2549 6.49733 27.969 6.99265 27.5047 7.26067C27.0405 7.52868 26.4686 7.52868 26.0043 7.26067C25.5401 6.99265 25.2541 6.49733 25.2541 5.96129C25.2541 5.42525 25.5401 4.92993 26.0043 4.66192Z" fill="#515151"/>
<path d="M25.0497 28.0895C25.441 28.3154 25.6366 28.4284 25.8398 28.4893C26.1808 28.5916 26.5442 28.5916 26.8852 28.4893C27.0884 28.4284 27.284 28.3154 27.6753 28.0895C28.0667 27.8635 28.2623 27.7506 28.4167 27.6051C28.6757 27.361 28.8575 27.0462 28.9394 26.6998C28.9882 26.4933 28.9882 26.2674 28.9882 25.8156C28.9882 25.3637 28.9882 25.1378 28.9394 24.9314C28.8575 24.5849 28.6757 24.2702 28.4167 24.026C28.2623 23.8805 28.0667 23.7676 27.6753 23.5417C27.284 23.3157 27.0884 23.2028 26.8852 23.1418C26.5442 23.0395 26.1808 23.0395 25.8398 23.1418C25.6366 23.2028 25.441 23.3157 25.0497 23.5417C24.6583 23.7676 24.4627 23.8805 24.3083 24.026C24.0493 24.2702 23.8675 24.5849 23.7856 24.9314C23.7368 25.1378 23.7368 25.3637 23.7368 25.8156C23.7368 26.2674 23.7368 26.4933 23.7856 26.6998C23.8675 27.0462 24.0493 27.361 24.3083 27.6051C24.4627 27.7506 24.6583 27.8635 25.0497 28.0895Z" fill="#757A59"/>
<path d="M26.0043 36.6218C26.4686 36.8899 27.0405 36.8899 27.5047 36.6218C27.9689 36.3538 28.2549 35.8585 28.2549 35.3225C28.2549 34.7864 27.969 34.2911 27.5047 34.0231C27.0405 33.7551 26.4686 33.7551 26.0043 34.0231C25.5401 34.2911 25.2541 34.7864 25.2541 35.3225C25.2541 35.8585 25.5401 36.3538 26.0043 36.6218Z" fill="#929C5F"/>
<path d="M11.6018 13.2368C11.2105 13.0108 11.0149 12.8979 10.8117 12.8369C10.4707 12.7346 10.1072 12.7346 9.76628 12.8369C9.56312 12.8979 9.36746 13.0108 8.97615 13.2368C8.58483 13.4627 8.38918 13.5756 8.23481 13.7211C7.97575 13.9653 7.79401 14.28 7.71211 14.6265C7.66331 14.8329 7.66331 15.0588 7.66331 15.5107C7.66331 15.9625 7.66331 16.1884 7.71211 16.3949C7.79401 16.7413 7.97575 17.0561 8.23481 17.3002C8.38918 17.4457 8.58483 17.5586 8.97615 17.7846C9.36746 18.0105 9.56312 18.1235 9.76628 18.1844C10.1072 18.2867 10.4707 18.2867 10.8117 18.1844C11.0149 18.1235 11.2105 18.0105 11.6018 17.7846C11.9931 17.5586 12.1888 17.4457 12.3432 17.3002C12.6022 17.0561 12.784 16.7413 12.8659 16.3949C12.9147 16.1884 12.9147 15.9625 12.9147 15.5107C12.9147 15.0588 12.9147 14.8329 12.8659 14.6265C12.784 14.28 12.6022 13.9653 12.3432 13.7211C12.1888 13.5756 11.9931 13.4627 11.6018 13.2368Z" fill="#555652"/>
<path d="M11.0407 4.66192C10.5765 4.3939 10.0045 4.3939 9.54032 4.66192C9.07609 4.92993 8.79012 5.42525 8.79012 5.96129C8.79012 6.49733 9.07609 6.99265 9.54032 7.26067C10.0045 7.52868 10.5765 7.52868 11.0407 7.26067C11.5049 6.99265 11.7909 6.49733 11.7909 5.96129C11.7909 5.42525 11.5049 4.92993 11.0407 4.66192Z" fill="#515151"/>
<path d="M11.6018 28.0475C11.2105 28.2734 11.0149 28.3864 10.8117 28.4473C10.4707 28.5496 10.1072 28.5496 9.76628 28.4473C9.56312 28.3864 9.36746 28.2734 8.97615 28.0475C8.58483 27.8216 8.38918 27.7086 8.23481 27.5631C7.97575 27.319 7.79401 27.0042 7.71211 26.6578C7.66331 26.4513 7.66331 26.2254 7.66331 25.7736C7.66331 25.3217 7.66331 25.0958 7.71211 24.8894C7.79401 24.543 7.97575 24.2282 8.23481 23.984C8.38918 23.8386 8.58483 23.7256 8.97615 23.4997C9.36746 23.2737 9.56312 23.1608 9.76628 23.0998C10.1072 22.9975 10.4707 22.9975 10.8117 23.0998C11.0149 23.1608 11.2105 23.2737 11.6018 23.4997C11.9931 23.7256 12.1888 23.8386 12.3432 23.984C12.6022 24.2282 12.784 24.543 12.8659 24.8894C12.9147 25.0958 12.9147 25.3217 12.9147 25.7736C12.9147 26.2254 12.9147 26.4513 12.8659 26.6578C12.784 27.0042 12.6022 27.319 12.3432 27.5631C12.1888 27.7086 11.9931 27.8216 11.6018 28.0475Z" fill="#757A59"/>
<path d="M11.0407 36.6223C10.5765 36.8903 10.0045 36.8903 9.54032 36.6223C9.07609 36.3543 8.79012 35.859 8.79012 35.323C8.79012 34.7869 9.07609 34.2916 9.54032 34.0236C10.0045 33.7556 10.5765 33.7556 11.0407 34.0236C11.5049 34.2916 11.7909 34.7869 11.7909 35.323C11.7909 35.859 11.5049 36.3543 11.0407 36.6223Z" fill="#929C5F"/>
</svg>
