<svg width="144" height="48" viewBox="0 0 144 48" fill="none" xmlns="http://www.w3.org/2000/svg">
<path d="M136.98 17.0003L140.066 17.0003L134.314 25.2953V30.4003H131.324V25.3173L125.572 17.0003H128.558L132.808 23.0543L136.98 17.0003Z" fill="black"/>
<path d="M114.819 18.6503V17.0003L123.292 17.0003L122.842 18.6503H118.955H114.819ZM114.819 24.4411V22.9231H122.357L121.907 24.4411H114.819ZM113.045 19.0003C113.045 17.8957 113.94 17.0003 115.045 17.0003H116.081V30.4003H113.045V19.0003Z" fill="black"/>
<path d="M105.574 18.0003C105.574 17.448 106.022 17.0003 106.574 17.0003H108.664V29.4003C108.664 29.9526 108.216 30.4003 107.664 30.4003H105.574V18.0003Z" fill="black"/>
<path d="M91.1542 18.7383V18.0003C91.1542 17.448 91.6019 17.0003 92.1542 17.0003H102.844L102.394 18.7383H98.5612V30.4003H95.4152V18.7383H91.1542Z" fill="black"/>
<path d="M85.3391 17.0004H88.3751V29.397C88.3751 29.95 87.9263 30.398 87.3734 30.397L85.3391 30.3935L77.3882 20.4014L77.4191 30.4004H74.3831L74.3828 18.9999C74.3827 17.8953 75.2782 16.9999 76.3827 16.9998L77.4187 16.9998L85.3391 27.4234V17.0004Z" fill="black"/>
<path d="M61.247 30.4003V28.8383H69.783L69.333 30.4003H61.247ZM61.247 18.5623V17.0003H70.133L69.683 18.5623H61.247ZM61.247 24.3651V22.8471H69.4963L69.0463 24.3651H61.247ZM58.723 19.0003C58.723 17.8957 59.6184 17.0003 60.723 17.0003H62.259V30.4003H59.723C59.1707 30.4003 58.723 29.9526 58.723 29.4003V19.0003Z" fill="black"/>
<path d="M20.7659 21.0001C21.6114 20.5119 22.0342 20.2678 22.4984 20.2678C22.9626 20.2678 23.3854 20.5119 24.2309 21.0001L24.5169 21.1652C25.3624 21.6533 25.7851 21.8974 26.0173 22.2995C26.2494 22.7015 26.2494 23.1896 26.2494 24.166V24.4962C26.2494 25.4725 26.2494 25.9607 26.0173 26.3627C25.7851 26.7647 25.3624 27.0088 24.5169 27.497L24.2309 27.6621C23.3854 28.1502 22.9626 28.3943 22.4984 28.3943C22.0342 28.3943 21.6114 28.1502 20.7659 27.6621L20.4799 27.497C19.6344 27.0088 19.2116 26.7647 18.9795 26.3627C18.7474 25.9607 18.7474 25.4725 18.7474 24.4962V24.166C18.7474 23.1896 18.7474 22.7015 18.9795 22.2995C19.2116 21.8974 19.6344 21.6533 20.4799 21.1652L20.7659 21.0001Z" fill="#B8CA5B"/>
<path d="M20.8803 12.0073C21.2716 11.7814 21.4673 11.6684 21.6705 11.6075C22.0114 11.5052 22.3749 11.5052 22.7159 11.6075C22.919 11.6684 23.1147 11.7814 23.506 12.0073C23.8973 12.2332 24.093 12.3462 24.2473 12.4917C24.5064 12.7358 24.6881 13.0506 24.77 13.397C24.8188 13.6034 24.8188 13.8294 24.8188 14.2812C24.8188 14.7331 24.8188 14.959 24.77 15.1654C24.6881 15.5118 24.5064 15.8266 24.2473 16.0708C24.093 16.2162 23.8973 16.3292 23.506 16.5551C23.1147 16.781 22.919 16.894 22.7159 16.9549C22.3749 17.0572 22.0114 17.0572 21.6705 16.9549C21.4673 16.894 21.2716 16.781 20.8803 16.5551C20.489 16.3292 20.2933 16.2162 20.139 16.0708C19.8799 15.8266 19.6982 15.5118 19.6163 15.1654C19.5675 14.959 19.5675 14.7331 19.5675 14.2812C19.5675 13.8294 19.5675 13.6034 19.6163 13.397C19.6982 13.0506 19.8799 12.7358 20.139 12.4917C20.2933 12.3462 20.489 12.2332 20.8803 12.0073Z" fill="#C5DE49"/>
<path d="M21.4444 3.43294C21.9086 3.16492 22.4805 3.16492 22.9448 3.43294C23.409 3.70096 23.695 4.19628 23.695 4.73232C23.695 5.26835 23.409 5.76367 22.9448 6.03169C22.4805 6.29971 21.9086 6.29971 21.4444 6.03169C20.9802 5.76367 20.6942 5.26835 20.6942 4.73232C20.6942 4.19628 20.9802 3.70096 21.4444 3.43294Z" fill="#C5E625"/>
<path d="M20.8803 35.6544C21.2716 35.8804 21.4673 35.9933 21.6705 36.0543C22.0114 36.1566 22.3749 36.1566 22.7159 36.0543C22.919 35.9933 23.1147 35.8804 23.506 35.6544C23.8973 35.4285 24.093 35.3156 24.2473 35.1701C24.5064 34.9259 24.6881 34.6112 24.77 34.2647C24.8188 34.0583 24.8188 33.8324 24.8188 33.3805C24.8188 32.9287 24.8188 32.7028 24.77 32.4963C24.6881 32.1499 24.5064 31.8351 24.2473 31.591C24.093 31.4455 23.8973 31.3326 23.506 31.1066C23.1147 30.8807 22.919 30.7677 22.7159 30.7068C22.3749 30.6045 22.0114 30.6045 21.6705 30.7068C21.4673 30.7677 21.2716 30.8807 20.8803 31.1066C20.489 31.3326 20.2933 31.4455 20.139 31.591C19.8799 31.8351 19.6982 32.1499 19.6163 32.4963C19.5675 32.7028 19.5675 32.9287 19.5675 33.3805C19.5675 33.8324 19.5675 34.0583 19.6163 34.2647C19.6982 34.6112 19.8799 34.9259 20.139 35.1701C20.2933 35.3156 20.489 35.4285 20.8803 35.6544Z" fill="#A2B05B"/>
<path d="M21.4444 44.2288C21.9086 44.4968 22.4805 44.4968 22.9448 44.2288C23.409 43.9608 23.695 43.4655 23.695 42.9294C23.695 42.3934 23.409 41.8981 22.9448 41.6301C22.4805 41.362 21.9086 41.362 21.4444 41.6301C20.9802 41.8981 20.6942 42.3934 20.6942 42.9294C20.6942 43.4655 20.9802 43.9608 21.4444 44.2288Z" fill="#8A945B"/>
<path d="M38.2403 12.8177C38.7045 12.5497 39.2764 12.5497 39.7407 12.8177C40.2049 13.0857 40.4909 13.581 40.4909 14.1171C40.4909 14.6531 40.2049 15.1484 39.7407 15.4165C39.2764 15.6845 38.7045 15.6845 38.2403 15.4165C37.776 15.1484 37.4901 14.6531 37.4901 14.1171C37.4901 13.581 37.776 13.0857 38.2403 12.8177Z" fill="#C5DE49"/>
<path d="M38.2403 34.7893C38.7045 35.0574 39.2764 35.0574 39.7407 34.7893C40.2049 34.5213 40.4909 34.026 40.4909 33.49C40.4909 32.9539 40.2049 32.4586 39.7407 32.1906C39.2764 31.9226 38.7045 31.9226 38.2403 32.1906C37.776 32.4586 37.4901 32.9539 37.4901 33.49C37.4901 34.026 37.776 34.5213 38.2403 34.7893Z" fill="#A2B05B"/>
<path d="M38.2403 25.0755C38.7045 25.3435 39.2764 25.3435 39.7407 25.0755C40.2049 24.8075 40.4909 24.3121 40.4909 23.7761C40.4909 23.2401 40.2049 22.7447 39.7407 22.4767C39.2764 22.2087 38.7045 22.2087 38.2403 22.4767C37.776 22.7447 37.4901 23.2401 37.4901 23.7761C37.4901 24.3121 37.776 24.8075 38.2403 25.0755Z" fill="#B9CC5B"/>
<path d="M6.48269 12.8177C6.01847 12.5497 5.44652 12.5497 4.9823 12.8177C4.51808 13.0857 4.23211 13.581 4.23211 14.1171C4.23211 14.6531 4.51808 15.1484 4.9823 15.4165C5.44652 15.6845 6.01847 15.6845 6.48269 15.4165C6.94691 15.1484 7.23289 14.6531 7.23289 14.1171C7.23289 13.581 6.94691 13.0857 6.48269 12.8177Z" fill="#C5DE49"/>
<path d="M6.48269 22.4774C6.01847 22.2094 5.44652 22.2094 4.9823 22.4774C4.51808 22.7454 4.23211 23.2407 4.23211 23.7768C4.23211 24.3128 4.51808 24.8081 4.9823 25.0761C5.44652 25.3441 6.01847 25.3441 6.48269 25.0761C6.94691 24.8081 7.23289 24.3128 7.23289 23.7768C7.23289 23.2407 6.94691 22.7454 6.48269 22.4774Z" fill="#B8CB5B"/>
<path d="M6.48269 34.7893C6.01847 35.0574 5.44652 35.0574 4.9823 34.7893C4.51808 34.5213 4.23211 34.026 4.23211 33.49C4.23211 32.9539 4.51808 32.4586 4.9823 32.1906C5.44652 31.9226 6.01847 31.9226 6.48269 32.1906C6.94691 32.4586 7.23289 32.9539 7.23289 33.49C7.23289 34.026 6.94691 34.5213 6.48269 34.7893Z" fill="#A2B05B"/>
<path d="M29.2778 16.4531C29.6691 16.2272 29.8648 16.1142 30.0679 16.0533C30.4089 15.951 30.7724 15.951 31.1133 16.0533C31.3165 16.1142 31.5121 16.2272 31.9035 16.4531C32.2948 16.679 32.4904 16.792 32.6448 16.9375C32.9039 17.1816 33.0856 17.4964 33.1675 17.8428C33.2163 18.0492 33.2163 18.2752 33.2163 18.727C33.2163 19.1789 33.2163 19.4048 33.1675 19.6112C33.0856 19.9576 32.9039 20.2724 32.6448 20.5166C32.4904 20.662 32.2948 20.775 31.9035 21.0009C31.5121 21.2268 31.3165 21.3398 31.1133 21.4007C30.7724 21.503 30.4089 21.503 30.0679 21.4007C29.8648 21.3398 29.6691 21.2268 29.2778 21.0009C28.8865 20.775 28.6908 20.662 28.5364 20.5166C28.2774 20.2724 28.0956 19.9576 28.0137 19.6112C27.9649 19.4048 27.9649 19.1789 27.9649 18.727C27.9649 18.2752 27.9649 18.0492 28.0137 17.8428C28.0956 17.4964 28.2774 17.1816 28.5364 16.9375C28.6908 16.792 28.8865 16.679 29.2778 16.4531Z" fill="#C5DA5A"/>
<path d="M29.8409 7.87825C30.3051 7.61024 30.877 7.61024 31.3412 7.87825C31.8055 8.14627 32.0914 8.64159 32.0914 9.17763C32.0914 9.71367 31.8055 10.209 31.3412 10.477C30.877 10.745 30.3051 10.745 29.8409 10.477C29.3766 10.209 29.0907 9.71367 29.0907 9.17763C29.0907 8.64159 29.3766 8.14627 29.8409 7.87825Z" fill="#C5E236"/>
<path d="M28.8862 31.3058C29.2775 31.5317 29.4731 31.6447 29.6763 31.7056C30.0173 31.8079 30.3808 31.8079 30.7217 31.7056C30.9249 31.6447 31.1205 31.5317 31.5119 31.3058C31.9032 31.0799 32.0988 30.9669 32.2532 30.8215C32.5123 30.5773 32.694 30.2625 32.7759 29.9161C32.8247 29.7097 32.8247 29.4838 32.8247 29.0319C32.8247 28.5801 32.8247 28.3541 32.7759 28.1477C32.694 27.8013 32.5123 27.4865 32.2532 27.2424C32.0988 27.0969 31.9032 26.9839 31.5119 26.758C31.1205 26.5321 30.9249 26.4191 30.7217 26.3582C30.3808 26.2559 30.0173 26.2559 29.6763 26.3582C29.4731 26.4191 29.2775 26.5321 28.8862 26.758C28.4949 26.9839 28.2992 27.0969 28.1448 27.2424C27.8858 27.4865 27.704 27.8013 27.6221 28.1477C27.5733 28.3541 27.5733 28.5801 27.5733 29.0319C27.5733 29.4838 27.5733 29.7097 27.6221 29.9161C27.704 30.2625 27.8858 30.5773 28.1448 30.8215C28.2992 30.9669 28.4949 31.0799 28.8862 31.3058Z" fill="#ACBC5B"/>
<path d="M29.8409 39.8382C30.3051 40.1062 30.877 40.1062 31.3412 39.8382C31.8055 39.5702 32.0914 39.0748 32.0914 38.5388C32.0914 38.0028 31.8055 37.5074 31.3412 37.2394C30.877 36.9714 30.3051 36.9714 29.8409 37.2394C29.3766 37.5074 29.0907 38.0028 29.0907 38.5388C29.0907 39.0748 29.3766 39.5702 29.8409 39.8382Z" fill="#95A05B"/>
<path d="M15.5116 16.7583C15.1203 16.5323 14.9246 16.4194 14.7215 16.3584C14.3805 16.2562 14.017 16.2562 13.676 16.3584C13.4729 16.4194 13.2772 16.5323 12.8859 16.7583C12.4946 16.9842 12.2989 17.0972 12.1446 17.2426C11.8855 17.4868 11.7038 17.8016 11.6219 18.148C11.5731 18.3544 11.5731 18.5803 11.5731 19.0322C11.5731 19.484 11.5731 19.71 11.6219 19.9164C11.7038 20.2628 11.8855 20.5776 12.1446 20.8217C12.2989 20.9672 12.4946 21.0802 12.8859 21.3061C13.2772 21.532 13.4729 21.645 13.676 21.7059C14.017 21.8082 14.3805 21.8082 14.7215 21.7059C14.9246 21.645 15.1203 21.532 15.5116 21.3061C15.9029 21.0802 16.0986 20.9672 16.2529 20.8217C16.512 20.5776 16.6937 20.2628 16.7756 19.9164C16.8244 19.71 16.8244 19.484 16.8244 19.0322C16.8244 18.5803 16.8244 18.3544 16.7756 18.148C16.6937 17.8016 16.512 17.4868 16.2529 17.2426C16.0986 17.0972 15.9029 16.9842 15.5116 16.7583Z" fill="#C5DA5A"/>
<path d="M14.8772 7.87825C14.413 7.61024 13.8411 7.61024 13.3768 7.87825C12.9126 8.14627 12.6266 8.64159 12.6266 9.17763C12.6266 9.71367 12.9126 10.209 13.3768 10.477C13.8411 10.745 14.413 10.745 14.8772 10.477C15.3414 10.209 15.6274 9.71367 15.6274 9.17763C15.6274 8.64159 15.3414 8.14627 14.8772 7.87825Z" fill="#C5E236"/>
<path d="M15.4383 31.2638C15.047 31.4897 14.8514 31.6027 14.6482 31.6637C14.3072 31.7659 13.9438 31.7659 13.6028 31.6637C13.3996 31.6027 13.204 31.4897 12.8127 31.2638C12.4214 31.0379 12.2257 30.9249 12.0713 30.7795C11.8123 30.5353 11.6305 30.2205 11.5486 29.8741C11.4998 29.6677 11.4998 29.4418 11.4998 28.9899C11.4998 28.5381 11.4998 28.3121 11.5486 28.1057C11.6305 27.7593 11.8123 27.4445 12.0713 27.2004C12.2257 27.0549 12.4214 26.9419 12.8127 26.716C13.204 26.4901 13.3996 26.3771 13.6028 26.3162C13.9438 26.2139 14.3072 26.2139 14.6482 26.3162C14.8514 26.3771 15.047 26.4901 15.4383 26.716C15.8297 26.9419 16.0253 27.0549 16.1797 27.2004C16.4387 27.4445 16.6205 27.7593 16.7024 28.1057C16.7512 28.3121 16.7512 28.5381 16.7512 28.9899C16.7512 29.4418 16.7512 29.6677 16.7024 29.8741C16.6205 30.2205 16.4387 30.5353 16.1797 30.7795C16.0253 30.9249 15.8297 31.0379 15.4383 31.2638Z" fill="#ADBD5B"/>
<path d="M14.8772 39.8387C14.413 40.1067 13.8411 40.1067 13.3768 39.8387C12.9126 39.5706 12.6266 39.0753 12.6266 38.5393C12.6266 38.0033 12.9126 37.5079 13.3768 37.2399C13.8411 36.9719 14.413 36.9719 14.8772 37.2399C15.3414 37.5079 15.6274 38.0033 15.6274 38.5393C15.6274 39.0753 15.3414 39.5706 14.8772 39.8387Z" fill="#95A15B"/>
</svg>
