<svg width="16" height="16" viewBox="0 0 16 16" fill="none" xmlns="http://www.w3.org/2000/svg">
<rect width="16" height="16" fill="white"/>
<path d="M6.86819 6.10845C7.31304 5.85162 7.53547 5.7232 7.77721 5.69937C7.85063 5.69213 7.92458 5.69213 7.998 5.69937C8.23974 5.7232 8.46216 5.85162 8.90701 6.10845C9.35186 6.36529 9.57429 6.4937 9.7158 6.69114C9.75878 6.7511 9.79575 6.81515 9.82619 6.88235C9.92642 7.10362 9.92642 7.36045 9.92642 7.87412C9.92642 8.38779 9.92642 8.64462 9.82619 8.86589C9.79575 8.9331 9.75878 8.99714 9.7158 9.05711C9.57429 9.25454 9.35186 9.38295 8.90701 9.63979C8.46216 9.89662 8.23974 10.025 7.998 10.0489C7.92458 10.0561 7.85063 10.0561 7.77721 10.0489C7.53547 10.025 7.31304 9.89662 6.86819 9.63979C6.42334 9.38295 6.20092 9.25454 6.05941 9.05711C6.01643 8.99714 5.97945 8.9331 5.94901 8.86589C5.84878 8.64462 5.84878 8.38779 5.84878 7.87412C5.84878 7.36045 5.84878 7.10362 5.94901 6.88235C5.97945 6.81515 6.01643 6.7511 6.05941 6.69114C6.20092 6.4937 6.42334 6.36529 6.86819 6.10845Z" fill="black"/>
<path d="M7.208 1.39237C7.50457 1.22115 7.65285 1.13554 7.81401 1.11965C7.86295 1.11482 7.91226 1.11482 7.9612 1.11965C8.12236 1.13554 8.27064 1.22115 8.56721 1.39237C8.86378 1.56359 9.01206 1.6492 9.1064 1.78083C9.13505 1.8208 9.15971 1.8635 9.18 1.9083C9.24682 2.05581 9.24682 2.22704 9.24682 2.56948C9.24682 2.91193 9.24682 3.08315 9.18 3.23066C9.15971 3.27547 9.13505 3.31816 9.1064 3.35814C9.01206 3.48976 8.86378 3.57537 8.56721 3.74659C8.27064 3.91782 8.12236 4.00343 7.9612 4.01932C7.91226 4.02415 7.86295 4.02415 7.81401 4.01932C7.65285 4.00343 7.50457 3.91782 7.208 3.74659C6.91143 3.57537 6.76315 3.48976 6.66881 3.35814C6.64016 3.31816 6.6155 3.27547 6.59521 3.23066C6.52839 3.08315 6.52839 2.91193 6.52839 2.56948C6.52839 2.22704 6.52839 2.05581 6.59521 1.9083C6.6155 1.8635 6.64016 1.8208 6.66881 1.78083C6.76315 1.6492 6.91143 1.56359 7.208 1.39237Z" fill="black"/>
<path d="M7.208 14.3557C7.50457 14.5269 7.65285 14.6125 7.81401 14.6284C7.86295 14.6332 7.91226 14.6332 7.9612 14.6284C8.12236 14.6125 8.27064 14.5269 8.56721 14.3557C8.86378 14.1845 9.01206 14.0988 9.1064 13.9672C9.13505 13.9272 9.15971 13.8845 9.18 13.8397C9.24682 13.6922 9.24682 13.521 9.24682 13.1786C9.24682 12.8361 9.24682 12.6649 9.18 12.5174C9.15971 12.4726 9.13505 12.4299 9.1064 12.3899C9.01206 12.2583 8.86378 12.1727 8.56721 12.0015C8.27064 11.8302 8.12236 11.7446 7.9612 11.7287C7.91226 11.7239 7.86295 11.7239 7.81401 11.7287C7.65285 11.7446 7.50457 11.8302 7.208 12.0015C6.91143 12.1727 6.76315 12.2583 6.66881 12.3899C6.64016 12.4299 6.6155 12.4726 6.59521 12.5174C6.52839 12.6649 6.52839 12.8361 6.52839 13.1786C6.52839 13.521 6.52839 13.6922 6.59521 13.8397C6.6155 13.8845 6.64016 13.9272 6.66881 13.9672C6.76315 14.0988 6.91143 14.1845 7.208 14.3557Z" fill="black"/>
<path d="M11.7509 4.34879C12.0475 4.17757 12.1958 4.09196 12.3569 4.07607C12.4059 4.07124 12.4552 4.07124 12.5041 4.07607C12.6653 4.09196 12.8136 4.17757 13.1101 4.34879C13.4067 4.52001 13.555 4.60563 13.6493 4.73725C13.678 4.77722 13.7026 4.81992 13.7229 4.86472C13.7897 5.01224 13.7897 5.18346 13.7897 5.5259C13.7897 5.86835 13.7897 6.03957 13.7229 6.18708C13.7026 6.23189 13.678 6.27458 13.6493 6.31456C13.555 6.44618 13.4067 6.53179 13.1101 6.70301C12.8136 6.87424 12.6653 6.95985 12.5041 6.97574C12.4552 6.98057 12.4059 6.98057 12.3569 6.97574C12.1958 6.95985 12.0475 6.87424 11.7509 6.70301C11.4543 6.53179 11.3061 6.44618 11.2117 6.31456C11.1831 6.27458 11.1584 6.23189 11.1381 6.18708C11.0713 6.03957 11.0713 5.86835 11.0713 5.5259C11.0713 5.18346 11.0713 5.01224 11.1381 4.86472C11.1584 4.81992 11.1831 4.77722 11.2117 4.73725C11.3061 4.60563 11.4543 4.52001 11.7509 4.34879Z" fill="black"/>
<path d="M11.7509 11.4359C12.0475 11.6071 12.1958 11.6927 12.3569 11.7086C12.4059 11.7134 12.4552 11.7134 12.5041 11.7086C12.6653 11.6927 12.8136 11.6071 13.1101 11.4359C13.4067 11.2647 13.555 11.179 13.6493 11.0474C13.678 11.0074 13.7026 10.9647 13.7229 10.9199C13.7897 10.7724 13.7897 10.6012 13.7897 10.2588C13.7897 9.91632 13.7897 9.7451 13.7229 9.59758C13.7026 9.55278 13.678 9.51008 13.6493 9.47011C13.555 9.33849 13.4067 9.25288 13.1101 9.08165C12.8136 8.91043 12.6653 8.82482 12.5041 8.80893C12.4552 8.8041 12.4059 8.8041 12.3569 8.80893C12.1958 8.82482 12.0475 8.91043 11.7509 9.08165C11.4543 9.25288 11.3061 9.33849 11.2117 9.47011C11.1831 9.51008 11.1584 9.55278 11.1381 9.59758C11.0713 9.7451 11.0713 9.91632 11.0713 10.2588C11.0713 10.6012 11.0713 10.7724 11.1381 10.9199C11.1584 10.9647 11.1831 11.0074 11.2117 11.0474C11.3061 11.179 11.4543 11.2647 11.7509 11.4359Z" fill="black"/>
<path d="M4.24909 4.34879C3.95252 4.17757 3.80424 4.09196 3.64308 4.07607C3.59413 4.07124 3.54483 4.07124 3.49588 4.07607C3.33472 4.09196 3.18644 4.17757 2.88987 4.34879C2.59331 4.52001 2.44502 4.60563 2.35068 4.73725C2.32203 4.77722 2.29738 4.81992 2.27708 4.86472C2.21027 5.01224 2.21027 5.18346 2.21027 5.5259C2.21027 5.86835 2.21027 6.03957 2.27708 6.18708C2.29738 6.23189 2.32203 6.27458 2.35068 6.31456C2.44502 6.44618 2.59331 6.53179 2.88987 6.70301C3.18644 6.87424 3.33472 6.95985 3.49588 6.97574C3.54483 6.98057 3.59413 6.98057 3.64308 6.97574C3.80424 6.95985 3.95252 6.87424 4.24909 6.70301C4.54565 6.53179 4.69393 6.44618 4.78828 6.31456C4.81693 6.27458 4.84158 6.23189 4.86187 6.18708C4.92869 6.03957 4.92869 5.86835 4.92869 5.5259C4.92869 5.18346 4.92869 5.01224 4.86187 4.86472C4.84158 4.81992 4.81693 4.77722 4.78828 4.73725C4.69393 4.60563 4.54565 4.52001 4.24909 4.34879Z" fill="black"/>
<path d="M4.24909 11.4359C3.95252 11.6071 3.80424 11.6927 3.64308 11.7086C3.59413 11.7134 3.54483 11.7134 3.49588 11.7086C3.33472 11.6927 3.18644 11.6071 2.88987 11.4359C2.59331 11.2647 2.44502 11.179 2.35068 11.0474C2.32203 11.0074 2.29738 10.9647 2.27708 10.9199C2.21027 10.7724 2.21027 10.6012 2.21027 10.2588C2.21027 9.91632 2.21027 9.7451 2.27708 9.59758C2.29738 9.55278 2.32203 9.51008 2.35068 9.47011C2.44502 9.33849 2.59331 9.25288 2.88987 9.08165C3.18644 8.91043 3.33472 8.82482 3.49588 8.80893C3.54483 8.8041 3.59413 8.8041 3.64308 8.80893C3.80424 8.82482 3.95252 8.91043 4.24909 9.08165C4.54565 9.25288 4.69393 9.33849 4.78828 9.47011C4.81693 9.51008 4.84158 9.55278 4.86187 9.59758C4.92869 9.7451 4.92869 9.91632 4.92869 10.2588C4.92869 10.6012 4.92869 10.7724 4.86187 10.9199C4.84158 10.9647 4.81693 11.0074 4.78828 11.0474C4.69393 11.179 4.54565 11.2647 4.24909 11.4359Z" fill="black"/>
</svg>
