<svg width="37" height="42" viewBox="0 0 37 42" fill="none" xmlns="http://www.w3.org/2000/svg">
<path d="M16.9292 17.7837C17.7747 17.2955 18.1974 17.0515 18.6617 17.0515C19.1259 17.0515 19.5486 17.2955 20.3942 17.7837L20.6801 17.9488C21.5257 18.437 21.9484 18.6811 22.1805 19.0831C22.4126 19.4851 22.4126 19.9733 22.4126 20.9496V21.2798C22.4126 22.2561 22.4126 22.7443 22.1805 23.1463C21.9484 23.5483 21.5257 23.7924 20.6801 24.2806L20.3942 24.4457C19.5486 24.9338 19.1259 25.1779 18.6617 25.1779C18.1974 25.1779 17.7747 24.9338 16.9292 24.4457L16.6432 24.2806C15.7977 23.7924 15.3749 23.5483 15.1428 23.1463C14.9107 22.7443 14.9107 22.2561 14.9107 21.2798V20.9496C14.9107 19.9733 14.9107 19.4851 15.1428 19.0831C15.3749 18.6811 15.7977 18.437 16.6432 17.9488L16.9292 17.7837Z" fill="black"/>
<path d="M17.0441 8.79117C17.4355 8.56525 17.6311 8.45228 17.8343 8.39134C18.1752 8.28905 18.5387 8.28905 18.8797 8.39134C19.0828 8.45228 19.2785 8.56525 19.6698 8.79117C20.0611 9.0171 20.2568 9.13006 20.4112 9.27553C20.6702 9.51967 20.852 9.83446 20.9339 10.1809C20.9827 10.3873 20.9827 10.6132 20.9827 11.0651C20.9827 11.5169 20.9827 11.7429 20.9339 11.9493C20.852 12.2957 20.6702 12.6105 20.4112 12.8546C20.2568 13.0001 20.0611 13.1131 19.6698 13.339C19.2785 13.5649 19.0828 13.6779 18.8797 13.7388C18.5387 13.8411 18.1752 13.8411 17.8343 13.7388C17.6311 13.6779 17.4355 13.5649 17.0441 13.339C16.6528 13.1131 16.4572 13.0001 16.3028 12.8546C16.0437 12.6105 15.862 12.2957 15.7801 11.9493C15.7313 11.7429 15.7313 11.5169 15.7313 11.0651C15.7313 10.6132 15.7313 10.3873 15.7801 10.1809C15.862 9.83446 16.0437 9.51967 16.3028 9.27553C16.4572 9.13006 16.6528 9.0171 17.0441 8.79117Z" fill="black"/>
<path d="M17.6076 0.216572C18.0718 -0.0514463 18.6438 -0.0514463 19.108 0.216572C19.5722 0.484591 19.8582 0.97991 19.8582 1.51595C19.8582 2.05198 19.5722 2.5473 19.108 2.81532C18.6438 3.08334 18.0718 3.08334 17.6076 2.81532C17.1434 2.5473 16.8574 2.05198 16.8574 1.51595C16.8574 0.97991 17.1434 0.484591 17.6076 0.216572Z" fill="black"/>
<path d="M17.0441 32.4381C17.4355 32.664 17.6311 32.777 17.8343 32.8379C18.1752 32.9402 18.5387 32.9402 18.8797 32.8379C19.0828 32.777 19.2785 32.664 19.6698 32.4381C20.0611 32.2122 20.2568 32.0992 20.4112 31.9537C20.6702 31.7096 20.852 31.3948 20.9339 31.0484C20.9827 30.8419 20.9827 30.616 20.9827 30.1642C20.9827 29.7123 20.9827 29.4864 20.9339 29.28C20.852 28.9335 20.6702 28.6188 20.4112 28.3746C20.2568 28.2292 20.0611 28.1162 19.6698 27.8903C19.2785 27.6643 19.0828 27.5514 18.8797 27.4904C18.5387 27.3881 18.1752 27.3881 17.8343 27.4904C17.6311 27.5514 17.4355 27.6643 17.0441 27.8903C16.6528 28.1162 16.4572 28.2292 16.3028 28.3746C16.0437 28.6188 15.862 28.9335 15.7801 29.28C15.7313 29.4864 15.7313 29.7123 15.7313 30.1642C15.7313 30.616 15.7313 30.8419 15.7801 31.0484C15.862 31.3948 16.0437 31.7096 16.3028 31.9537C16.4572 32.0992 16.6528 32.2122 17.0441 32.4381Z" fill="black"/>
<path d="M17.6076 41.0127C18.0718 41.2807 18.6438 41.2807 19.108 41.0127C19.5722 40.7447 19.8582 40.2493 19.8582 39.7133C19.8582 39.1773 19.5722 38.6819 19.108 38.4139C18.6438 38.1459 18.0718 38.1459 17.6076 38.4139C17.1434 38.6819 16.8574 39.1773 16.8574 39.7133C16.8574 40.2493 17.1434 40.7447 17.6076 41.0127Z" fill="black"/>
<path d="M34.4032 9.60158C34.8675 9.33356 35.4394 9.33356 35.9036 9.60158C36.3678 9.8696 36.6538 10.3649 36.6538 10.901C36.6538 11.437 36.3678 11.9323 35.9036 12.2003C35.4394 12.4684 34.8675 12.4684 34.4032 12.2003C33.939 11.9323 33.653 11.437 33.653 10.901C33.653 10.3649 33.939 9.8696 34.4032 9.60158Z" fill="black"/>
<path d="M34.4032 31.5733C34.8675 31.8414 35.4394 31.8414 35.9036 31.5733C36.3678 31.3053 36.6538 30.81 36.6538 30.274C36.6538 29.7379 36.3678 29.2426 35.9036 28.9746C35.4394 28.7066 34.8675 28.7066 34.4032 28.9746C33.939 29.2426 33.653 29.7379 33.653 30.274C33.653 30.81 33.939 31.3053 34.4032 31.5733Z" fill="black"/>
<path d="M34.4032 21.8593C34.8675 22.1273 35.4394 22.1273 35.9036 21.8593C36.3678 21.5913 36.6538 21.096 36.6538 20.5599C36.6538 20.0239 36.3678 19.5286 35.9036 19.2605C35.4394 18.9925 34.8675 18.9925 34.4032 19.2605C33.939 19.5286 33.653 20.0239 33.653 20.5599C33.653 21.096 33.939 21.5913 34.4032 21.8593Z" fill="black"/>
<path d="M2.6462 9.60158C2.18198 9.33356 1.61004 9.33356 1.14582 9.60158C0.681593 9.8696 0.395621 10.3649 0.395621 10.901C0.395621 11.437 0.681593 11.9323 1.14582 12.2003C1.61004 12.4684 2.18198 12.4684 2.6462 12.2003C3.11043 11.9323 3.3964 11.437 3.3964 10.901C3.3964 10.3649 3.11043 9.8696 2.6462 9.60158Z" fill="black"/>
<path d="M2.6462 19.261C2.18198 18.993 1.61004 18.993 1.14582 19.261C0.681593 19.529 0.395621 20.0243 0.395621 20.5604C0.395621 21.0964 0.681593 21.5917 1.14582 21.8598C1.61004 22.1278 2.18198 22.1278 2.6462 21.8598C3.11043 21.5917 3.3964 21.0964 3.3964 20.5604C3.3964 20.0243 3.11043 19.529 2.6462 19.261Z" fill="black"/>
<path d="M2.6462 31.5733C2.18198 31.8414 1.61004 31.8414 1.14582 31.5733C0.681593 31.3053 0.395621 30.81 0.395621 30.274C0.395621 29.7379 0.681593 29.2426 1.14582 28.9746C1.61004 28.7066 2.18198 28.7066 2.6462 28.9746C3.11043 29.2426 3.3964 29.7379 3.3964 30.274C3.3964 30.81 3.11043 31.3053 2.6462 31.5733Z" fill="black"/>
<path d="M25.4409 13.2367C25.8322 13.0108 26.0279 12.8978 26.2311 12.8369C26.572 12.7346 26.9355 12.7346 27.2765 12.8369C27.4796 12.8978 27.6753 13.0108 28.0666 13.2367C28.4579 13.4627 28.6536 13.5756 28.8079 13.7211C29.067 13.9652 29.2487 14.28 29.3306 14.6264C29.3794 14.8329 29.3794 15.0588 29.3794 15.5106C29.3794 15.9625 29.3794 16.1884 29.3306 16.3948C29.2487 16.7413 29.067 17.056 28.8079 17.3002C28.6536 17.4457 28.4579 17.5586 28.0666 17.7845C27.6753 18.0105 27.4796 18.1234 27.2765 18.1844C26.9355 18.2867 26.572 18.2867 26.2311 18.1844C26.0279 18.1234 25.8322 18.0105 25.4409 17.7845C25.0496 17.5586 24.854 17.4457 24.6996 17.3002C24.4405 17.056 24.2588 16.7413 24.1769 16.3948C24.1281 16.1884 24.1281 15.9625 24.1281 15.5106C24.1281 15.0588 24.1281 14.8329 24.1769 14.6264C24.2588 14.28 24.4405 13.9652 24.6996 13.7211C24.854 13.5756 25.0496 13.4627 25.4409 13.2367Z" fill="black"/>
<path d="M26.0044 4.66213C26.4686 4.39411 27.0406 4.39411 27.5048 4.66213C27.969 4.93015 28.255 5.42547 28.255 5.9615C28.255 6.49754 27.969 6.99286 27.5048 7.26088C27.0406 7.5289 26.4686 7.5289 26.0044 7.26088C25.5402 6.99286 25.2542 6.49754 25.2542 5.9615C25.2542 5.42547 25.5402 4.93015 26.0044 4.66213Z" fill="black"/>
<path d="M25.4409 28.0476C25.8322 28.2735 26.0279 28.3865 26.2311 28.4474C26.572 28.5497 26.9355 28.5497 27.2765 28.4474C27.4796 28.3865 27.6753 28.2735 28.0666 28.0476C28.4579 27.8216 28.6536 27.7087 28.8079 27.5632C29.067 27.3191 29.2487 27.0043 29.3306 26.6579C29.3794 26.4514 29.3794 26.2255 29.3794 25.7737C29.3794 25.3218 29.3794 25.0959 29.3306 24.8895C29.2487 24.543 29.067 24.2283 28.8079 23.9841C28.6536 23.8386 28.4579 23.7257 28.0666 23.4998C27.6753 23.2738 27.4796 23.1609 27.2765 23.0999C26.9355 22.9976 26.572 22.9976 26.2311 23.0999C26.0279 23.1609 25.8322 23.2738 25.4409 23.4998C25.0496 23.7257 24.854 23.8386 24.6996 23.9841C24.4405 24.2283 24.2588 24.543 24.1769 24.8895C24.1281 25.0959 24.1281 25.3218 24.1281 25.7737C24.1281 26.2255 24.1281 26.4514 24.1769 26.6579C24.2588 27.0043 24.4405 27.3191 24.6996 27.5632C24.854 27.7087 25.0496 27.8216 25.4409 28.0476Z" fill="black"/>
<path d="M26.0044 36.6219C26.4686 36.8899 27.0406 36.8899 27.5048 36.6219C27.969 36.3539 28.255 35.8586 28.255 35.3226C28.255 34.7865 27.969 34.2912 27.5048 34.0232C27.0406 33.7552 26.4686 33.7552 26.0044 34.0232C25.5402 34.2912 25.2542 34.7865 25.2542 35.3226C25.2542 35.8586 25.5402 36.3539 26.0044 36.6219Z" fill="black"/>
<path d="M11.6021 13.2367C11.2108 13.0108 11.0151 12.8978 10.8119 12.8369C10.471 12.7346 10.1075 12.7346 9.76653 12.8369C9.56336 12.8978 9.3677 13.0108 8.97639 13.2367C8.58508 13.4627 8.38942 13.5756 8.23506 13.7211C7.97599 13.9652 7.79425 14.28 7.71235 14.6264C7.66355 14.8329 7.66355 15.0588 7.66355 15.5106C7.66355 15.9625 7.66355 16.1884 7.71235 16.3948C7.79425 16.7413 7.97599 17.056 8.23506 17.3002C8.38942 17.4457 8.58508 17.5586 8.97639 17.7845C9.3677 18.0105 9.56336 18.1234 9.76653 18.1844C10.1075 18.2867 10.471 18.2867 10.8119 18.1844C11.0151 18.1234 11.2108 18.0105 11.6021 17.7845C11.9934 17.5586 12.189 17.4457 12.3434 17.3002C12.6025 17.056 12.7842 16.7413 12.8661 16.3948C12.9149 16.1884 12.9149 15.9625 12.9149 15.5106C12.9149 15.0588 12.9149 14.8329 12.8661 14.6264C12.7842 14.28 12.6025 13.9652 12.3434 13.7211C12.189 13.5756 11.9934 13.4627 11.6021 13.2367Z" fill="black"/>
<path d="M11.0406 4.66213C10.5764 4.39411 10.0045 4.39411 9.54025 4.66213C9.07603 4.93015 8.79006 5.42547 8.79006 5.9615C8.79006 6.49754 9.07603 6.99286 9.54025 7.26088C10.0045 7.5289 10.5764 7.5289 11.0406 7.26088C11.5049 6.99286 11.7908 6.49754 11.7908 5.9615C11.7908 5.42547 11.5049 4.93015 11.0406 4.66213Z" fill="black"/>
<path d="M11.6021 28.0476C11.2108 28.2735 11.0151 28.3865 10.8119 28.4474C10.471 28.5497 10.1075 28.5497 9.76653 28.4474C9.56336 28.3865 9.3677 28.2735 8.97639 28.0476C8.58508 27.8216 8.38942 27.7087 8.23506 27.5632C7.97599 27.3191 7.79425 27.0043 7.71235 26.6579C7.66355 26.4514 7.66355 26.2255 7.66355 25.7737C7.66355 25.3218 7.66355 25.0959 7.71235 24.8895C7.79425 24.543 7.97599 24.2283 8.23506 23.9841C8.38942 23.8386 8.58508 23.7257 8.97639 23.4998C9.3677 23.2738 9.56336 23.1609 9.76653 23.0999C10.1075 22.9976 10.471 22.9976 10.8119 23.0999C11.0151 23.1609 11.2108 23.2738 11.6021 23.4998C11.9934 23.7257 12.189 23.8386 12.3434 23.9841C12.6025 24.2283 12.7842 24.543 12.8661 24.8895C12.9149 25.0959 12.9149 25.3218 12.9149 25.7737C12.9149 26.2255 12.9149 26.4514 12.8661 26.6579C12.7842 27.0043 12.6025 27.3191 12.3434 27.5632C12.189 27.7087 11.9934 27.8216 11.6021 28.0476Z" fill="black"/>
<path d="M11.0406 36.6222C10.5764 36.8903 10.0045 36.8903 9.54025 36.6222C9.07603 36.3542 8.79006 35.8589 8.79006 35.3229C8.79006 34.7868 9.07603 34.2915 9.54025 34.0235C10.0045 33.7555 10.5764 33.7555 11.0406 34.0235C11.5049 34.2915 11.7908 34.7868 11.7908 35.3229C11.7908 35.8589 11.5049 36.3542 11.0406 36.6222Z" fill="black"/>
</svg>
