<svg width="15" height="16" viewBox="0 0 15 16" fill="none" xmlns="http://www.w3.org/2000/svg">
<path d="M6.08041 6.31262C6.48096 6.08137 6.68123 5.96574 6.89737 5.93521C7.00173 5.92048 7.10764 5.92048 7.21201 5.93521C7.42815 5.96574 7.62842 6.08137 8.02897 6.31262C8.42951 6.54388 8.62979 6.65951 8.76429 6.83143C8.82924 6.91444 8.88219 7.00616 8.92161 7.10391C9.00324 7.30636 9.00324 7.53761 9.00324 8.00012C9.00324 8.46263 9.00324 8.69389 8.92161 8.89633C8.88219 8.99408 8.82924 9.08581 8.76429 9.16882C8.62979 9.34074 8.42951 9.45637 8.02897 9.68762C7.62842 9.91888 7.42815 10.0345 7.21201 10.065C7.10764 10.0798 7.00173 10.0798 6.89737 10.065C6.68123 10.0345 6.48096 9.91888 6.08041 9.68762C5.67986 9.45637 5.47959 9.34074 5.34508 9.16882C5.28014 9.08581 5.22718 8.99408 5.18777 8.89633C5.10613 8.69389 5.10613 8.46263 5.10613 8.00012C5.10613 7.53761 5.10613 7.30636 5.18777 7.10391C5.22718 7.00616 5.28014 6.91444 5.34508 6.83143C5.47959 6.65951 5.67986 6.54388 6.08041 6.31262Z" fill="#B8CA5B"/>
<path d="M6.40517 1.8053C6.6722 1.65113 6.80571 1.57404 6.94981 1.55369C7.01938 1.54387 7.08999 1.54387 7.15957 1.55369C7.30366 1.57404 7.43718 1.65113 7.70421 1.8053C7.97124 1.95947 8.10475 2.03655 8.19442 2.15117C8.23772 2.20651 8.27302 2.26766 8.2993 2.33282C8.35373 2.46779 8.35373 2.62196 8.35373 2.9303C8.35373 3.23864 8.35373 3.39281 8.2993 3.52777C8.27302 3.59294 8.23772 3.65409 8.19442 3.70943C8.10475 3.82404 7.97124 3.90113 7.70421 4.0553C7.43718 4.20947 7.30366 4.28655 7.15957 4.3069C7.08999 4.31673 7.01938 4.31673 6.94981 4.3069C6.80571 4.28655 6.6722 4.20947 6.40517 4.0553C6.13814 3.90113 6.00462 3.82404 5.91495 3.70943C5.87166 3.65409 5.83635 3.59294 5.81007 3.52777C5.75565 3.39281 5.75565 3.23864 5.75565 2.9303C5.75565 2.62196 5.75565 2.46779 5.81007 2.33282C5.83635 2.26766 5.87166 2.20651 5.91495 2.15117C6.00462 2.03655 6.13814 1.95947 6.40517 1.8053Z" fill="#C5E625"/>
<path d="M6.40517 14.1947C6.6722 14.3489 6.80571 14.426 6.94981 14.4463C7.01938 14.4561 7.08999 14.4561 7.15957 14.4463C7.30366 14.426 7.43718 14.3489 7.70421 14.1947C7.97124 14.0405 8.10475 13.9634 8.19442 13.8488C8.23772 13.7935 8.27302 13.7323 8.2993 13.6672C8.35373 13.5322 8.35373 13.378 8.35373 13.0697C8.35373 12.7614 8.35373 12.6072 8.2993 12.4722C8.27302 12.4071 8.23772 12.3459 8.19442 12.2906C8.10475 12.176 7.97124 12.0989 7.70421 11.9447C7.43718 11.7905 7.30366 11.7134 7.15957 11.6931C7.08999 11.6833 7.01938 11.6833 6.94981 11.6931C6.80571 11.7134 6.6722 11.7905 6.40517 11.9447C6.13814 12.0989 6.00462 12.176 5.91495 12.2906C5.87166 12.3459 5.83635 12.4071 5.81007 12.4722C5.75565 12.6072 5.75565 12.7614 5.75565 13.0697C5.75565 13.378 5.75565 13.5322 5.81007 13.6672C5.83635 13.7323 5.87166 13.7935 5.91495 13.8488C6.00462 13.9634 6.13814 14.0405 6.40517 14.1947Z" fill="#8A945B"/>
<path d="M10.747 4.63086C11.014 4.47669 11.1475 4.3996 11.2916 4.37925C11.3612 4.36943 11.4318 4.36943 11.5014 4.37925C11.6455 4.3996 11.779 4.47669 12.046 4.63086C12.313 4.78503 12.4465 4.86211 12.5362 4.97673C12.5795 5.03207 12.6148 5.09322 12.6411 5.15838C12.6955 5.29335 12.6955 5.44752 12.6955 5.75586C12.6955 6.0642 12.6955 6.21837 12.6411 6.35333C12.6148 6.4185 12.5795 6.47965 12.5362 6.53499C12.4465 6.6496 12.313 6.72669 12.046 6.88086C11.779 7.03503 11.6455 7.11211 11.5014 7.13246C11.4318 7.14229 11.3612 7.14229 11.2916 7.13246C11.1475 7.11211 11.014 7.03503 10.747 6.88086C10.4799 6.72669 10.3464 6.6496 10.2567 6.53499C10.2135 6.47965 10.1781 6.4185 10.1519 6.35333C10.0974 6.21837 10.0974 6.0642 10.0974 5.75586C10.0974 5.44752 10.0974 5.29335 10.1519 5.15838C10.1781 5.09322 10.2135 5.03207 10.2567 4.97673C10.3464 4.86211 10.4799 4.78503 10.747 4.63086Z" fill="#C5DE49"/>
<path d="M10.747 11.4042C11.014 11.5583 11.1475 11.6354 11.2916 11.6558C11.3612 11.6656 11.4318 11.6656 11.5014 11.6558C11.6455 11.6354 11.779 11.5583 12.046 11.4042C12.313 11.25 12.4465 11.1729 12.5362 11.0583C12.5795 11.003 12.6148 10.9418 12.6411 10.8766C12.6955 10.7417 12.6955 10.5875 12.6955 10.2792C12.6955 9.97083 12.6955 9.81666 12.6411 9.6817C12.6148 9.61653 12.5795 9.55538 12.5362 9.50004C12.4465 9.38543 12.313 9.30835 12.046 9.15417C11.779 9 11.6455 8.92292 11.5014 8.90257C11.4318 8.89274 11.3612 8.89274 11.2916 8.90257C11.1475 8.92292 11.014 9 10.747 9.15417C10.4799 9.30835 10.3464 9.38543 10.2567 9.50004C10.2135 9.55538 10.1781 9.61653 10.1519 9.6817C10.0974 9.81666 10.0974 9.97083 10.0974 10.2792C10.0974 10.5875 10.0974 10.7417 10.1519 10.8766C10.1781 10.9418 10.2135 11.003 10.2567 11.0583C10.3464 11.1729 10.4799 11.25 10.747 11.4042Z" fill="#A2B05B"/>
<path d="M3.57725 4.63086C3.31022 4.47669 3.17671 4.3996 3.03261 4.37925C2.96304 4.36943 2.89243 4.36943 2.82286 4.37925C2.67876 4.3996 2.54525 4.47669 2.27822 4.63086C2.01118 4.78503 1.87767 4.86211 1.788 4.97673C1.7447 5.03207 1.7094 5.09322 1.68312 5.15838C1.6287 5.29335 1.6287 5.44752 1.6287 5.75586C1.6287 6.0642 1.6287 6.21837 1.68312 6.35333C1.7094 6.4185 1.7447 6.47965 1.788 6.53499C1.87767 6.6496 2.01118 6.72669 2.27822 6.88086C2.54525 7.03503 2.67876 7.11211 2.82286 7.13246C2.89243 7.14229 2.96304 7.14229 3.03261 7.13246C3.17671 7.11211 3.31022 7.03503 3.57725 6.88086C3.84428 6.72669 3.9778 6.6496 4.06747 6.53499C4.11077 6.47965 4.14607 6.4185 4.17235 6.35333C4.22677 6.21837 4.22677 6.0642 4.22677 5.75586C4.22677 5.44752 4.22677 5.29335 4.17235 5.15838C4.14607 5.09322 4.11077 5.03207 4.06747 4.97673C3.9778 4.86211 3.84428 4.78503 3.57725 4.63086Z" fill="#C5DE49"/>
<path d="M3.57725 11.4042C3.31022 11.5583 3.17671 11.6354 3.03261 11.6558C2.96304 11.6656 2.89243 11.6656 2.82286 11.6558C2.67876 11.6354 2.54525 11.5583 2.27822 11.4042C2.01118 11.25 1.87767 11.1729 1.788 11.0583C1.7447 11.003 1.7094 10.9418 1.68312 10.8766C1.6287 10.7417 1.6287 10.5875 1.6287 10.2792C1.6287 9.97083 1.6287 9.81666 1.68312 9.6817C1.7094 9.61653 1.7447 9.55538 1.788 9.50004C1.87767 9.38543 2.01118 9.30835 2.27822 9.15417C2.54525 9 2.67876 8.92292 2.82286 8.90257C2.89243 8.89274 2.96304 8.89274 3.03261 8.90257C3.17671 8.92292 3.31022 9 3.57725 9.15417C3.84428 9.30835 3.9778 9.38543 4.06747 9.50004C4.11077 9.55538 4.14607 9.61653 4.17235 9.6817C4.22677 9.81666 4.22677 9.97083 4.22677 10.2792C4.22677 10.5875 4.22677 10.7417 4.17235 10.8766C4.14607 10.9418 4.11077 11.003 4.06747 11.0583C3.9778 11.1729 3.84428 11.25 3.57725 11.4042Z" fill="#A2B05B"/>
</svg>
