<svg width="37" height="42" viewBox="0 0 37 42" fill="none" xmlns="http://www.w3.org/2000/svg">
<path d="M16.9293 17.7837C17.7749 17.2956 18.1976 17.0515 18.6618 17.0515C19.1261 17.0515 19.5488 17.2956 20.3943 17.7837L20.6803 17.9488C21.5258 18.437 21.9486 18.6811 22.1807 19.0831C22.4128 19.4851 22.4128 19.9733 22.4128 20.9496V21.2798C22.4128 22.2562 22.4128 22.7443 22.1807 23.1463C21.9486 23.5484 21.5258 23.7925 20.6803 24.2806L20.3943 24.4457C19.5488 24.9339 19.1261 25.178 18.6618 25.178C18.1976 25.178 17.7749 24.9339 16.9293 24.4457L16.6434 24.2806C15.7979 23.7925 15.3751 23.5484 15.143 23.1463C14.9109 22.7443 14.9109 22.2562 14.9109 21.2798V20.9496C14.9109 19.9733 14.9109 19.4851 15.143 19.0831C15.3751 18.6811 15.7979 18.437 16.6434 17.9488L16.9293 17.7837Z" fill="#CACACA"/>
<path d="M17.0438 8.79096C17.4351 8.56503 17.6307 8.45207 17.8339 8.39112C18.1749 8.28884 18.5384 8.28884 18.8793 8.39112C19.0825 8.45207 19.2781 8.56503 19.6695 8.79096C20.0608 9.01688 20.2564 9.12985 20.4108 9.27532C20.6699 9.51946 20.8516 9.83424 20.9335 10.1807C20.9823 10.3871 20.9823 10.613 20.9823 11.0649C20.9823 11.5167 20.9823 11.7426 20.9335 11.9491C20.8516 12.2955 20.6699 12.6103 20.4108 12.8544C20.2564 12.9999 20.0608 13.1128 19.6695 13.3388C19.2781 13.5647 19.0825 13.6777 18.8793 13.7386C18.5384 13.8409 18.1749 13.8409 17.8339 13.7386C17.6307 13.6777 17.4351 13.5647 17.0438 13.3388C16.6525 13.1128 16.4568 12.9999 16.3024 12.8544C16.0434 12.6103 15.8616 12.2955 15.7797 11.9491C15.7309 11.7426 15.7309 11.5167 15.7309 11.0649C15.7309 10.613 15.7309 10.3871 15.7797 10.1807C15.8616 9.83424 16.0434 9.51946 16.3024 9.27532C16.4568 9.12985 16.6525 9.01688 17.0438 8.79096Z" fill="#DEDEDE"/>
<path d="M17.6078 0.216603C18.072 -0.0514158 18.644 -0.0514158 19.1082 0.216603C19.5724 0.484621 19.8584 0.979941 19.8584 1.51598C19.8584 2.05201 19.5724 2.54733 19.1082 2.81535C18.644 3.08337 18.072 3.08337 17.6078 2.81535C17.1436 2.54733 16.8576 2.05201 16.8576 1.51598C16.8576 0.979941 17.1436 0.484621 17.6078 0.216603Z" fill="#E6E6E6"/>
<path d="M17.0438 32.4381C17.4351 32.664 17.6307 32.777 17.8339 32.8379C18.1749 32.9402 18.5384 32.9402 18.8793 32.8379C19.0825 32.777 19.2781 32.664 19.6695 32.4381C20.0608 32.2122 20.2564 32.0992 20.4108 31.9537C20.6699 31.7096 20.8516 31.3948 20.9335 31.0484C20.9823 30.842 20.9823 30.6161 20.9823 30.1642C20.9823 29.7124 20.9823 29.4864 20.9335 29.28C20.8516 28.9336 20.6699 28.6188 20.4108 28.3747C20.2564 28.2292 20.0608 28.1162 19.6695 27.8903C19.2781 27.6644 19.0825 27.5514 18.8793 27.4905C18.5384 27.3882 18.1749 27.3882 17.8339 27.4905C17.6307 27.5514 17.4351 27.6644 17.0438 27.8903C16.6525 28.1162 16.4568 28.2292 16.3024 28.3747C16.0434 28.6188 15.8616 28.9336 15.7797 29.28C15.7309 29.4864 15.7309 29.7124 15.7309 30.1642C15.7309 30.6161 15.7309 30.842 15.7797 31.0484C15.8616 31.3948 16.0434 31.7096 16.3024 31.9537C16.4568 32.0992 16.6525 32.2122 17.0438 32.4381Z" fill="#B0B0B0"/>
<path d="M17.6078 41.0125C18.072 41.2805 18.644 41.2805 19.1082 41.0125C19.5724 40.7444 19.8584 40.2491 19.8584 39.7131C19.8584 39.1771 19.5724 38.6817 19.1082 38.4137C18.644 38.1457 18.072 38.1457 17.6078 38.4137C17.1436 38.6817 16.8576 39.1771 16.8576 39.7131C16.8576 40.2491 17.1436 40.7444 17.6078 41.0125Z" fill="#949494"/>
<path d="M34.4037 9.60137C34.8679 9.33335 35.4399 9.33335 35.9041 9.60137C36.3683 9.86939 36.6543 10.3647 36.6543 10.9007C36.6543 11.4368 36.3683 11.9321 35.9041 12.2001C35.4399 12.4681 34.8679 12.4681 34.4037 12.2001C33.9395 11.9321 33.6535 11.4368 33.6535 10.9007C33.6535 10.3647 33.9395 9.86939 34.4037 9.60137Z" fill="#DEDEDE"/>
<path d="M34.4037 31.573C34.8679 31.841 35.4399 31.841 35.9041 31.573C36.3683 31.305 36.6543 30.8097 36.6543 30.2736C36.6543 29.7376 36.3683 29.2423 35.9041 28.9743C35.4399 28.7062 34.8679 28.7062 34.4037 28.9743C33.9395 29.2423 33.6535 29.7376 33.6535 30.2736C33.6535 30.8097 33.9395 31.305 34.4037 31.573Z" fill="#B0B0B0"/>
<path d="M34.4037 21.8591C34.8679 22.1272 35.4399 22.1272 35.9041 21.8591C36.3683 21.5911 36.6543 21.0958 36.6543 20.5598C36.6543 20.0237 36.3683 19.5284 35.9041 19.2604C35.4399 18.9924 34.8679 18.9924 34.4037 19.2604C33.9395 19.5284 33.6535 20.0237 33.6535 20.5598C33.6535 21.0958 33.9395 21.5911 34.4037 21.8591Z" fill="#CCCCCC"/>
<path d="M2.64614 9.60137C2.18192 9.33335 1.60998 9.33335 1.14575 9.60137C0.681532 9.86939 0.39556 10.3647 0.39556 10.9007C0.39556 11.4368 0.681532 11.9321 1.14575 12.2001C1.60998 12.4681 2.18192 12.4681 2.64614 12.2001C3.11036 11.9321 3.39634 11.4368 3.39634 10.9007C3.39634 10.3647 3.11036 9.86939 2.64614 9.60137Z" fill="#DEDEDE"/>
<path d="M2.64614 19.261C2.18192 18.993 1.60998 18.993 1.14575 19.261C0.681532 19.5291 0.39556 20.0244 0.39556 20.5604C0.39556 21.0964 0.681532 21.5918 1.14575 21.8598C1.60998 22.1278 2.18192 22.1278 2.64614 21.8598C3.11036 21.5918 3.39634 21.0964 3.39634 20.5604C3.39634 20.0244 3.11036 19.5291 2.64614 19.261Z" fill="#CBCBCB"/>
<path d="M2.64614 31.573C2.18192 31.841 1.60998 31.841 1.14575 31.573C0.681532 31.305 0.39556 30.8097 0.39556 30.2736C0.39556 29.7376 0.681532 29.2423 1.14575 28.9743C1.60998 28.7062 2.18192 28.7062 2.64614 28.9743C3.11036 29.2423 3.39634 29.7376 3.39634 30.2736C3.39634 30.8097 3.11036 31.305 2.64614 31.573Z" fill="#B0B0B0"/>
<path d="M25.4412 13.2368C25.8325 13.0108 26.0282 12.8979 26.2314 12.8369C26.5723 12.7346 26.9358 12.7346 27.2768 12.8369C27.4799 12.8979 27.6756 13.0108 28.0669 13.2368C28.4582 13.4627 28.6539 13.5756 28.8082 13.7211C29.0673 13.9653 29.2491 14.28 29.331 14.6265C29.3798 14.8329 29.3798 15.0588 29.3798 15.5107C29.3798 15.9625 29.3798 16.1884 29.331 16.3949C29.2491 16.7413 29.0673 17.0561 28.8082 17.3002C28.6539 17.4457 28.4582 17.5586 28.0669 17.7846C27.6756 18.0105 27.4799 18.1235 27.2768 18.1844C26.9358 18.2867 26.5723 18.2867 26.2314 18.1844C26.0282 18.1235 25.8325 18.0105 25.4412 17.7846C25.0499 17.5586 24.8543 17.4457 24.6999 17.3002C24.4408 17.0561 24.2591 16.7413 24.1772 16.3949C24.1284 16.1884 24.1284 15.9625 24.1284 15.5107C24.1284 15.0588 24.1284 14.8329 24.1772 14.6265C24.2591 14.28 24.4408 13.9653 24.6999 13.7211C24.8543 13.5756 25.0499 13.4627 25.4412 13.2368Z" fill="#DADADA"/>
<path d="M26.0043 4.66192C26.4685 4.3939 27.0405 4.3939 27.5047 4.66192C27.9689 4.92993 28.2549 5.42525 28.2549 5.96129C28.2549 6.49733 27.9689 6.99265 27.5047 7.26067C27.0405 7.52868 26.4685 7.52868 26.0043 7.26067C25.5401 6.99265 25.2541 6.49733 25.2541 5.96129C25.2541 5.42525 25.5401 4.92993 26.0043 4.66192Z" fill="#E2E2E2"/>
<path d="M25.0496 28.0895C25.4409 28.3154 25.6366 28.4284 25.8398 28.4893C26.1807 28.5916 26.5442 28.5916 26.8852 28.4893C27.0883 28.4284 27.284 28.3154 27.6753 28.0895C28.0666 27.8635 28.2623 27.7506 28.4166 27.6051C28.6757 27.361 28.8575 27.0462 28.9394 26.6998C28.9882 26.4933 28.9882 26.2674 28.9882 25.8156C28.9882 25.3637 28.9882 25.1378 28.9394 24.9314C28.8575 24.5849 28.6757 24.2702 28.4166 24.026C28.2623 23.8805 28.0666 23.7676 27.6753 23.5417C27.284 23.3157 27.0883 23.2028 26.8852 23.1418C26.5442 23.0395 26.1807 23.0395 25.8398 23.1418C25.6366 23.2028 25.4409 23.3157 25.0496 23.5417C24.6583 23.7676 24.4627 23.8805 24.3083 24.026C24.0492 24.2702 23.8675 24.5849 23.7856 24.9314C23.7368 25.1378 23.7368 25.3637 23.7368 25.8156C23.7368 26.2674 23.7368 26.4933 23.7856 26.6998C23.8675 27.0462 24.0492 27.361 24.3083 27.6051C24.4627 27.7506 24.6583 27.8635 25.0496 28.0895Z" fill="#BCBCBC"/>
<path d="M26.0043 36.6218C26.4685 36.8899 27.0405 36.8899 27.5047 36.6218C27.9689 36.3538 28.2549 35.8585 28.2549 35.3225C28.2549 34.7864 27.9689 34.2911 27.5047 34.0231C27.0405 33.7551 26.4685 33.7551 26.0043 34.0231C25.5401 34.2911 25.2541 34.7864 25.2541 35.3225C25.2541 35.8585 25.5401 36.3538 26.0043 36.6218Z" fill="#A0A0A0"/>
<path d="M11.675 13.5419C11.2837 13.316 11.0881 13.203 10.8849 13.1421C10.5439 13.0398 10.1805 13.0398 9.83949 13.1421C9.63633 13.203 9.44067 13.316 9.04936 13.5419C8.65804 13.7679 8.46239 13.8808 8.30802 14.0263C8.04896 14.2704 7.86722 14.5852 7.78532 14.9316C7.73652 15.1381 7.73652 15.364 7.73652 15.8158C7.73652 16.2677 7.73652 16.4936 7.78532 16.7C7.86722 17.0465 8.04896 17.3612 8.30802 17.6054C8.46239 17.7509 8.65804 17.8638 9.04936 18.0897C9.44067 18.3157 9.63633 18.4286 9.83949 18.4896C10.1805 18.5919 10.5439 18.5919 10.8849 18.4896C11.0881 18.4286 11.2837 18.3157 11.675 18.0897C12.0664 17.8638 12.262 17.7509 12.4164 17.6054C12.6754 17.3612 12.8572 17.0465 12.9391 16.7C12.9879 16.4936 12.9879 16.2677 12.9879 15.8158C12.9879 15.364 12.9879 15.1381 12.9391 14.9316C12.8572 14.5852 12.6754 14.2704 12.4164 14.0263C12.262 13.8808 12.0664 13.7679 11.675 13.5419Z" fill="#DADADA"/>
<path d="M11.0407 4.66192C10.5765 4.3939 10.0045 4.3939 9.54029 4.66192C9.07606 4.92993 8.79009 5.42525 8.79009 5.96129C8.79009 6.49733 9.07606 6.99265 9.54029 7.26067C10.0045 7.52868 10.5765 7.52868 11.0407 7.26067C11.5049 6.99265 11.7909 6.49733 11.7909 5.96129C11.7909 5.42525 11.5049 4.92993 11.0407 4.66192Z" fill="#E2E2E2"/>
<path d="M11.6018 28.0475C11.2105 28.2734 11.0148 28.3864 10.8117 28.4473C10.4707 28.5496 10.1072 28.5496 9.76625 28.4473C9.56309 28.3864 9.36743 28.2734 8.97612 28.0475C8.5848 27.8216 8.38915 27.7086 8.23478 27.5631C7.97572 27.319 7.79398 27.0042 7.71208 26.6578C7.66328 26.4513 7.66328 26.2254 7.66328 25.7736C7.66328 25.3217 7.66328 25.0958 7.71208 24.8894C7.79398 24.543 7.97572 24.2282 8.23478 23.984C8.38915 23.8386 8.5848 23.7256 8.97612 23.4997C9.36743 23.2737 9.56309 23.1608 9.76625 23.0998C10.1072 22.9975 10.4707 22.9975 10.8117 23.0998C11.0148 23.1608 11.2105 23.2737 11.6018 23.4997C11.9931 23.7256 12.1888 23.8386 12.3431 23.984C12.6022 24.2282 12.7839 24.543 12.8658 24.8894C12.9146 25.0958 12.9146 25.3217 12.9146 25.7736C12.9146 26.2254 12.9146 26.4513 12.8658 26.6578C12.7839 27.0042 12.6022 27.319 12.3431 27.5631C12.1888 27.7086 11.9931 27.8216 11.6018 28.0475Z" fill="#BDBDBD"/>
<path d="M10.6461 36.8153C10.1819 37.0834 9.60998 37.0834 9.14575 36.8153C8.68153 36.5473 8.39556 36.052 8.39556 35.516C8.39556 34.9799 8.68153 34.4846 9.14575 34.2166C9.60998 33.9486 10.1819 33.9486 10.6461 34.2166C11.1104 34.4846 11.3963 34.9799 11.3963 35.516C11.3963 36.052 11.1104 36.5473 10.6461 36.8153Z" fill="#A1A1A1"/>
</svg>
